<svg width="499" height="333" viewBox="0 0 499 333" fill="none" xmlns="http://www.w3.org/2000/svg">
<g clip-path="url(#clip0)">
<path opacity="0.1" d="M493.647 308.955C491.687 314.8 489.274 320.407 486.441 325.703C485.112 328.229 483.654 330.652 482.076 332.958C482.062 332.981 482.046 333.003 482.028 333.021H-6L-5.93413 332.958C-5.495 332.544 -2.9173 330.023 1.09196 325.703C3.96826 322.609 7.57791 318.587 11.6311 313.747C44.781 274.344 108.459 181.076 55.4256 95.6352C6.12439 16.2074 59.2065 1.79398 94.2227 0.111711C107.676 -0.525219 121.098 2.12633 133.683 7.90749C149.861 15.3371 179.427 26.7256 217.948 31.9476C219.212 32.1174 220.486 32.2872 221.777 32.4411C242.171 34.9505 262.703 35.4014 283.159 33.789C283.76 33.7466 284.366 33.6935 284.977 33.6404C305.213 31.9232 325.295 28.1689 345.015 22.4164C346.292 22.0396 347.553 21.6841 348.809 21.3285C414.516 2.95618 475.089 65.5718 459.944 136.333C454.345 162.507 455.768 190.405 474.435 212.975C504.999 249.815 501.297 286.098 493.647 308.955Z" fill="white"/>
<path d="M493.647 308.955C491.687 314.8 489.274 320.407 486.44 325.703C485.111 328.229 483.654 330.651 482.075 332.958H-5.93457C-5.49544 332.544 -2.91774 330.023 1.09152 325.703C3.96782 322.609 7.57747 318.587 11.6306 313.747L63.066 300.904C63.7306 300.739 64.4074 300.655 65.086 300.655L119.92 300.559H119.977L147.138 300.517H147.199L170.122 300.485H185.127H200.496L263.476 300.379H263.577H268.456H277.028H287.729H290.575L301.391 300.23H304.965L336.425 300.177H346.472H351.302L387.64 300.119H398.461L432.88 300.061L461.932 300.018C462.742 300.019 463.548 300.134 464.335 300.363L493.647 308.955Z" fill="#577294"/>
<path opacity="0.4" d="M1.09152 325.703H486.44C485.111 328.228 483.654 330.651 482.075 332.958H-5.93457C-5.50422 332.517 -2.92653 329.996 1.09152 325.703Z" fill="#C4C4C4"/>
<path d="M315.98 160.66L315.005 160.888L270.934 171.119C258.133 174.091 245.148 177.079 232.145 175.938C222.726 175.11 213.926 171.735 204.875 168.774C199.759 167.097 194.336 166.428 192.601 159.508C190.208 149.956 194.103 135.813 195.021 126.133C195.899 116.634 196.417 106.896 194.854 97.508C194.507 95.3983 194.049 93.3174 193.484 91.2777C191.916 85.6578 189.453 79.8149 190.783 74.1101C191.833 69.5833 195.034 66.3514 198.029 63.3584C203.896 57.5208 209.886 50.9775 212.213 42.2265C213.355 37.981 213.57 33.4118 214.799 29.1981C217.131 21.1848 222.989 15.1933 229.506 12.0198C236.023 8.84633 243.189 8.17236 250.22 8.17236C256.428 8.17278 262.629 8.67095 268.782 9.66359C275.492 10.725 282.263 12.4709 288.161 16.4935C294.058 20.5161 299.029 27.1072 300.404 35.1418C302.349 46.5038 296.948 58.6034 299.846 69.6364C301.304 75.2139 304.676 79.7194 307.017 84.8246C308.925 89.0951 310.103 93.786 310.48 98.6181C310.858 103.45 310.426 108.324 309.213 112.951C306.411 123.443 299.552 134.056 303.065 144.23C305.3 150.699 311.009 154.153 314.987 159.28C315.341 159.74 315.672 160.2 315.98 160.66Z" fill="#454B69"/>
<path opacity="0.1" d="M315.004 159.322V160.888L270.933 171.12C258.133 174.091 245.147 177.079 232.145 175.938C222.725 175.11 213.925 171.735 204.875 168.774C199.759 167.097 194.336 166.428 192.601 159.508C190.208 149.956 194.103 135.813 195.021 126.133C195.899 116.634 209.42 81.9537 207.856 72.5659L288.657 76.8114C289.201 81.9962 310.556 108.021 309.225 112.994C306.424 123.485 299.565 134.099 303.078 144.272C305.317 150.741 311.026 154.196 315.004 159.322Z" fill="black"/>
<path d="M232.448 133.064C232.927 136.349 233.181 139.963 231.794 142.829C229.945 146.671 225.914 147.897 222.308 148.767L209.793 151.792C208.941 151.999 208.037 152.233 207.4 152.938C206.649 153.75 206.394 155.035 206.284 156.244C205.779 161.721 207.382 167.118 208.845 172.335C211.8 182.901 214.281 193.69 218.018 203.884C221.755 214.079 226.884 223.811 234.204 230.625C241.525 237.439 251.212 241.069 260.175 238.405C267.982 236.086 274.385 229.426 279.905 222.363C284.458 216.525 288.718 210.157 290.927 202.584C292.451 197.383 292.947 191.843 293.425 186.356C294.166 177.942 294.907 169.529 295.647 161.116C295.994 157.168 296.223 152.726 294.102 149.696C293.171 148.364 291.906 147.478 290.615 146.655C285.811 143.572 280.752 141.024 276.282 137.31C271.812 133.595 267.846 128.479 266.489 122.132C265.677 118.322 265.822 114.172 264.439 110.621C262.893 106.641 259.608 103.945 256.095 102.762C252.582 101.579 248.876 101.738 245.257 102.231C241.639 102.725 227.692 103.988 226.195 108.918C225.391 111.571 228.724 117.266 229.514 119.877C230.816 124.158 231.797 128.571 232.448 133.064Z" fill="#EFB7B9"/>
<path opacity="0.1" d="M232.448 133.064C232.927 136.349 233.181 139.963 231.794 142.829C229.945 146.671 225.914 147.897 222.308 148.767L209.793 151.792C208.941 151.999 208.037 152.233 207.4 152.938C206.649 153.75 206.394 155.035 206.284 156.244C205.779 161.721 207.382 167.118 208.845 172.335C211.8 182.901 214.281 193.69 218.018 203.884C221.755 214.079 226.884 223.811 234.204 230.625C241.525 237.439 251.212 241.069 260.175 238.405C267.982 236.086 274.385 229.426 279.905 222.363C284.458 216.525 288.718 210.157 290.927 202.584C292.451 197.383 292.947 191.843 293.425 186.356C294.166 177.942 294.907 169.529 295.647 161.116C295.994 157.168 296.223 152.726 294.102 149.696C293.171 148.364 291.906 147.478 290.615 146.655C285.811 143.572 280.752 141.024 276.282 137.31C271.812 133.595 267.846 128.479 266.489 122.132C265.677 118.322 265.822 114.172 264.439 110.621C262.893 106.641 259.608 103.945 256.095 102.762C252.582 101.579 248.876 101.738 245.257 102.231C241.639 102.725 227.692 103.988 226.195 108.918C225.391 111.571 228.724 117.266 229.514 119.877C230.816 124.158 231.797 128.571 232.448 133.064Z" fill="black"/>
<path d="M262.568 190.771L269.905 171.995C273.344 163.197 276.857 153.952 276.492 144.235C276.422 142.304 276.405 139.889 277.81 139.013C278.42 138.712 279.085 138.61 279.738 138.716C287.463 139.193 295.086 141.057 302.357 144.246C303.767 144.861 305.212 145.573 306.2 146.931C307.188 148.29 307.587 150.115 307.925 151.866C309.077 157.788 309.918 163.791 310.442 169.841C311.759 184.817 311.105 199.925 310.442 214.949L308.492 260.816C308.502 261.467 308.393 262.112 308.171 262.705C307.688 263.767 306.599 264.122 305.62 264.324C301.848 265.104 297.992 264.945 294.172 264.77C267.297 263.539 240.282 261.649 213.583 265.587C213.703 260.814 213.64 256.038 213.394 251.259C212.335 230.62 207.909 210.486 203.562 190.49C201.028 178.815 198.573 166.078 202.653 155.077C203.253 153.34 204.115 151.753 205.195 150.396C206.93 148.343 209.297 147.26 211.642 146.485C215.687 145.156 219.876 144.583 224.065 144.787L251.752 217.634C253.017 220.967 254.057 224.475 255.318 227.765C256.451 222.082 255.089 215.421 256.45 209.26C257.917 202.865 260.227 196.747 262.568 190.771Z" fill="white"/>
<path d="M259.674 240.894C264.627 241.271 269.44 238.204 272.848 233.868C276.256 229.532 278.504 224.035 280.405 218.478C283.139 210.558 285.311 202.372 286.9 194.008C288.217 186.897 289.153 179.537 288.244 172.33C286.988 162.379 282.329 153.337 281.534 143.317C281.398 141.566 281.486 139.518 282.649 138.461C283.369 137.809 284.318 137.718 285.214 137.655C293.496 137.06 302.595 137.172 309.01 143.524C310.964 145.456 312.55 147.87 314.46 149.861C319.009 154.637 325.438 157.067 328.358 163.409C329.377 165.617 329.865 168.116 330.576 170.494C332.253 176.119 335.156 181.065 338.041 185.931C335.244 200.196 332.029 214.472 329.232 228.736C327.594 237.105 325.943 245.506 323.37 253.519C321.684 258.773 319.563 264.133 320.081 269.758C320.287 271.971 320.898 274.089 321.429 276.222C323.291 283.71 324.164 291.506 324.015 299.323L198.714 299.694C204.717 289.293 206.478 276.535 205.867 263.878C205.573 257.813 204.44 251.71 201.915 246.461C197.937 238.236 190.937 232.876 184.038 228.285C179.208 225.101 174.022 243.017 168.8 240.963C169.643 233.757 170.03 205.938 169.679 198.684C169.564 196.306 169.389 193.865 169.995 191.594C170.408 190.039 171.167 188.648 171.681 187.136C173.741 181.081 171.778 173.338 175.106 168.185C177.407 164.603 181.443 163.584 184.723 161.376C188.091 159.105 190.695 155.539 193.629 152.493C199.385 146.586 206.418 142.791 213.899 141.555C216.081 145.715 217.408 150.447 217.768 155.353C217.992 158.436 217.829 161.562 218.185 164.63C218.672 168.785 220.095 172.685 221.505 176.528C227.376 192.549 233.269 208.618 240.708 223.663C242.811 227.909 245.099 232.154 248.147 235.46C251.194 238.766 255.581 241.128 259.674 240.894Z" fill="#8D8D9A"/>
<path opacity="0.1" d="M259.674 240.894C264.627 241.271 269.44 238.204 272.848 233.868C276.256 229.532 278.504 224.035 280.405 218.478C283.139 210.558 285.311 202.372 286.9 194.008C288.217 186.897 289.153 179.537 288.244 172.33C286.988 162.379 282.329 153.337 281.534 143.317C281.398 141.566 281.486 139.518 282.649 138.461C283.369 137.809 284.318 137.718 285.214 137.655C293.496 137.06 302.595 137.172 309.01 143.524C310.964 145.456 312.55 147.87 314.46 149.861C319.009 154.637 325.438 157.067 328.358 163.409C329.377 165.617 329.865 168.116 330.576 170.494C332.253 176.119 335.156 181.065 338.041 185.931C335.244 200.196 332.029 214.472 329.232 228.736C327.594 237.105 325.943 245.506 323.37 253.519C321.684 258.773 319.563 264.133 320.081 269.758C320.287 271.971 320.898 274.089 321.429 276.222C323.291 283.71 324.164 291.506 324.015 299.323L198.714 299.694C204.717 289.293 206.478 276.535 205.867 263.878C205.573 257.813 204.44 251.71 201.915 246.461C197.937 238.236 190.937 232.876 184.038 228.285C179.208 225.101 174.022 243.017 168.8 240.963C169.643 233.757 170.03 205.938 169.679 198.684C169.564 196.306 169.389 193.865 169.995 191.594C170.408 190.039 171.167 188.648 171.681 187.136C173.741 181.081 171.778 173.338 175.106 168.185C177.407 164.603 181.443 163.584 184.723 161.376C188.091 159.105 190.695 155.539 193.629 152.493C199.385 146.586 206.418 142.791 213.899 141.555C216.081 145.715 217.408 150.447 217.768 155.353C217.992 158.436 217.829 161.562 218.185 164.63C218.672 168.785 220.095 172.685 221.505 176.528C227.376 192.549 233.269 208.618 240.708 223.663C242.811 227.909 245.099 232.154 248.147 235.46C251.194 238.766 255.581 241.128 259.674 240.894Z" fill="black"/>
<path d="M253.048 131.86C273.837 131.86 290.69 111.493 290.69 86.3693C290.69 61.2456 273.837 40.8789 253.048 40.8789C232.258 40.8789 215.405 61.2456 215.405 86.3693C215.405 111.493 232.258 131.86 253.048 131.86Z" fill="#EFB7B9"/>
<path d="M233.295 146.989C234.327 135.219 230.279 123.703 225.694 113.243C223.498 108.244 221.145 103.261 220.043 97.7683C218.94 92.2757 219.256 86.0561 222.076 81.5399C224.473 77.6978 228.276 75.6228 231.794 73.3674C241.722 66.9991 250.799 57.6378 255.164 45.119C252.696 46.7429 253.337 51.588 255.515 53.7267C257.694 55.8653 260.662 56.2793 263.341 57.2982C273.107 61.013 278.965 72.7836 283.664 83.7794C284.432 85.5731 285.214 87.4677 285.205 89.4896C285.196 91.5115 284.432 93.3052 283.633 95.0247C281.314 100.013 278.478 104.805 277.424 110.383C276.216 116.751 277.49 123.448 279.145 129.694C280.902 136.339 283.233 143.036 287.449 147.801C291.665 152.567 298.203 154.934 303.389 151.856C298.212 141.099 292.85 129.079 294.87 116.884C295.845 111.046 298.467 105.739 299.582 99.9335C301.708 88.8581 298.168 77.4643 294.695 66.893L284.314 35.3437C282.728 30.5198 280.924 25.3721 277.288 22.6391C274.828 20.7976 271.851 20.32 268.97 19.9857C259.696 18.988 250.088 19.317 241.455 23.4882C225.725 31.0823 215.862 49.8049 208.037 67.965C205.692 73.4045 203.378 79.1837 203.474 85.3184C203.527 88.683 204.304 91.9573 204.936 95.2369C207.51 108.589 207.65 122.424 207.782 136.132C207.883 146.65 207.431 156.563 203.623 166.142C208.84 167.394 216.406 170.775 221.571 168.302C228.303 165.086 232.448 155.178 233.295 146.989Z" fill="#454B69"/>
<g opacity="0.1">
<path opacity="0.1" d="M207.76 135.908C207.778 134.412 207.778 132.901 207.76 131.376C207.628 117.669 207.488 103.834 204.914 90.4816C204.34 87.8833 203.891 85.2466 203.571 82.585C203.48 83.4988 203.441 84.419 203.452 85.3392C203.505 88.7038 204.282 91.9781 204.914 95.2577C207.475 108.53 207.633 122.28 207.76 135.908Z" fill="black"/>
<path opacity="0.1" d="M299.582 99.9334C300.158 96.8326 300.351 93.6456 300.153 90.4766C300.067 92.0527 299.876 93.618 299.582 95.1572C298.466 100.995 295.845 106.254 294.87 112.107C294.45 114.689 294.332 117.329 294.519 119.951C294.589 118.921 294.706 117.897 294.87 116.883C295.845 111.03 298.466 105.75 299.582 99.9334Z" fill="black"/>
<path opacity="0.1" d="M284.862 87.0535C285.077 86.2998 285.192 85.5101 285.205 84.7132C285.205 82.6913 284.432 80.7968 283.664 79.003C278.965 68.0072 273.124 56.2472 263.341 52.5218C260.662 51.5029 257.698 51.089 255.515 48.9503C254.954 48.3658 254.494 47.6516 254.164 46.8497C253.834 46.0478 253.639 45.1742 253.592 44.2803C248.832 54.8409 240.655 62.918 231.794 68.591C228.28 70.8464 224.473 72.9214 222.076 76.7635C219.823 80.3722 219.169 85.0688 219.559 89.6114C219.781 86.696 220.65 83.9071 222.076 81.5397C224.473 77.6976 228.276 75.6226 231.794 73.3672C240.655 67.6941 248.832 59.6171 253.592 49.0564C253.639 49.9504 253.834 50.8239 254.164 51.6259C254.494 52.4278 254.954 53.142 255.515 53.7265C257.711 55.8492 260.662 56.2791 263.341 57.298C273.107 61.0128 278.965 72.7834 283.664 83.7792C284.14 84.8272 284.541 85.9227 284.862 87.0535Z" fill="black"/>
<path opacity="0.1" d="M287.449 143.025C283.233 138.248 280.91 131.562 279.145 124.918C278.086 121.185 277.379 117.321 277.037 113.396C276.629 118.847 277.749 124.424 279.145 129.694C280.902 136.338 283.233 143.035 287.449 147.801C291.665 152.566 298.203 154.933 303.389 151.855C302.766 150.566 302.147 149.255 301.532 147.934C296.715 149.573 291.182 147.238 287.449 143.025Z" fill="black"/>
<path opacity="0.1" d="M233.296 142.213C232.448 150.402 228.303 160.31 221.553 163.547C216.868 165.792 210.197 163.212 205.108 161.785C204.67 163.274 204.169 164.736 203.606 166.163C208.823 167.415 216.389 170.796 221.553 168.323C228.303 165.086 232.448 155.178 233.296 146.989C233.47 144.941 233.503 142.878 233.392 140.823C233.366 141.284 233.326 141.751 233.296 142.213Z" fill="black"/>
</g>
<path d="M286.505 273.791C279.72 272.491 272.835 269.981 266.107 271.669C262.208 272.645 258.642 274.991 255.401 277.824C257.184 279.549 259.266 281.088 260.399 283.487C261.102 285.147 261.63 286.906 261.971 288.725C262.682 291.909 263.398 295.157 263.508 298.468C263.617 301.78 263.069 305.229 261.435 307.898C269.989 308.917 278.28 306.37 286.624 303.881C287.578 303.679 288.486 303.236 289.289 302.581C290.606 301.329 290.993 299.1 291.002 297.067C291.002 293.437 290.159 289.898 289.302 286.416C288.283 282.24 287.528 277.941 286.505 273.791Z" fill="white"/>
<path d="M332.315 184.281C335.683 184.811 338.296 188.096 340.219 191.471C345.616 200.865 347.944 212.253 350.535 223.254C353.755 236.935 357.542 250.401 361.895 263.65C362.832 266.71 363.972 269.674 365.303 272.513C366.387 274.704 367.705 276.811 368.183 279.3C369.343 285.318 365.237 290.975 360.955 294.329C358.673 296.188 356.181 297.639 353.556 298.638C351 299.562 348.335 299.912 345.687 300.262L321.31 303.446C310.091 304.921 298.77 306.397 287.546 304.975C286.839 302.003 288.226 299.901 288.125 296.807C288.055 294.594 287.247 292.535 286.527 290.497C285.199 286.868 284.321 283.022 283.923 279.082C283.796 277.634 283.752 276.148 283.295 274.8C282.838 273.452 281.859 272.242 280.66 272.146C287.247 271.356 292.249 269.854 298.836 269.058C301.282 268.761 303.824 268.426 305.91 266.855C308.497 264.908 309.946 261.395 311.096 257.988C313.946 249.55 315.782 240.252 314.284 231.315C313.055 223.987 309.625 217.162 309.643 209.685C309.643 205.232 310.899 200.918 312.383 196.842C313.955 192.533 316.006 188.128 319.457 185.942C322.909 183.755 328.42 183.644 332.315 184.281Z" fill="#8D8D9A"/>
<path opacity="0.08" d="M332.315 184.281C335.683 184.811 338.296 188.096 340.219 191.471C345.616 200.865 347.944 212.253 350.535 223.254C353.755 236.935 357.542 250.401 361.895 263.65C362.832 266.71 363.972 269.674 365.303 272.513C366.387 274.704 367.705 276.811 368.183 279.3C369.343 285.318 365.237 290.975 360.955 294.329C358.673 296.188 356.181 297.639 353.556 298.638C351 299.562 348.335 299.912 345.687 300.262L321.31 303.446C310.091 304.921 298.77 306.397 287.546 304.975C286.839 302.003 288.226 299.901 288.125 296.807C288.055 294.594 287.247 292.535 286.527 290.497C285.199 286.868 284.321 283.022 283.923 279.082C283.796 277.634 283.752 276.148 283.295 274.8C282.838 273.452 281.859 272.242 280.66 272.146C287.247 271.356 292.249 269.854 298.836 269.058C301.282 268.761 303.824 268.426 305.91 266.855C308.497 264.908 309.946 261.395 311.096 257.988C313.946 249.55 315.782 240.252 314.284 231.315C313.055 223.987 309.625 217.162 309.643 209.685C309.643 205.232 310.899 200.918 312.383 196.842C313.955 192.533 316.006 188.128 319.457 185.942C322.909 183.755 328.42 183.644 332.315 184.281Z" fill="black"/>
<path d="M179.669 177.387C181.263 172.812 182.883 168.089 182.927 163.127C182.975 157.762 181.171 152.668 179.792 147.573C178.087 141.34 176.951 134.9 176.406 128.368C176.293 127.742 176.371 127.088 176.626 126.526C176.99 125.905 177.693 125.778 178.312 125.613C181.351 124.775 183.647 121.808 185.544 118.82C188.487 114.206 190.972 109.191 192.948 103.876C194.402 99.9652 196.369 95.1944 199.917 95.1572C198.489 103.266 196.718 111.281 194.612 119.171C198.323 118.024 201.849 116.358 205.56 115.212C206.286 114.935 207.047 114.812 207.808 114.851C210.03 115.132 211.392 118.767 210.101 120.97C211.914 123.538 214.931 124.228 217.302 125.99C219.674 127.752 221.377 132.114 219.27 134.327C218.857 134.757 218.334 135.059 218.036 135.611C217.017 137.511 219.511 139.692 219.305 141.942C219.138 143.784 217.184 144.644 215.704 144.155C214.224 143.667 213.069 142.33 211.752 141.348C210.434 140.366 208.713 139.756 207.435 140.775C207.092 145.769 206.724 150.858 204.936 155.406C204.282 157.067 203.443 158.622 202.916 160.347C202.412 162.227 202.1 164.175 201.985 166.147L200.391 183.76C192.786 185.602 185.966 182.848 179.669 177.387Z" fill="#EFB7B9"/>
<path d="M177.811 193.175L176.41 181.718C176.277 180.785 176.202 179.841 176.187 178.894C176.187 176.241 177.153 173.71 178.088 171.295C185.839 175.668 194.217 177.223 202.767 177.228C203.896 177.228 205.182 177.101 205.885 176.034C207.338 178.056 207.382 181.309 206.763 183.877C206.144 186.446 204.954 188.76 204.164 191.265C203.764 192.533 203.439 193.918 202.675 194.895C201.489 196.439 199.566 196.704 197.818 196.694C195.979 196.68 194.145 196.468 192.338 196.062C187.657 195.011 182.492 192.161 177.811 193.175Z" fill="white"/>
<path d="M206.719 192.708C200.703 191.88 194.727 190.712 188.79 189.205C185.878 188.467 182.94 187.645 179.972 187.788C178.04 187.884 175.963 188.351 174.263 187.194C175.919 194.003 176.02 201.177 174.039 207.859C172.867 211.839 171.079 215.548 170.219 219.645C168.427 228.216 170.886 237.561 168.647 245.978C168.41 247.078 167.944 248.086 167.294 248.907C166.609 249.666 165.674 250.059 165.041 250.881C164.11 252.091 164.053 253.912 164.049 255.562L164.009 270.182C163.983 279.491 164.084 289.361 168.15 297.247C172.788 306.269 182.549 310.944 191.047 308.201C193.306 307.503 195.422 306.251 197.265 304.523C200.216 301.689 202.095 297.592 203.935 293.602C206.131 288.825 208.326 283.943 209.033 278.567C209.534 274.762 209.253 270.878 208.893 267.051C206.908 245.824 202.6 224.777 203.527 203.47C203.665 199.575 204.779 195.822 206.719 192.708Z" fill="#8D8D9A"/>
<path d="M231.864 280.802C228.812 281.014 225.738 281.227 222.699 280.802C220.504 280.484 218.361 279.831 216.183 279.385C210.234 278.224 204.148 278.632 198.343 280.582C192.537 282.531 187.15 285.975 182.55 290.678C180.863 292.419 179.159 295.088 180.09 297.524C181.092 300.145 184.152 300.071 186.51 299.583C183.965 301.052 181.717 303.177 179.924 305.808C179.265 306.779 178.641 307.931 178.769 309.188C179.036 311.815 181.987 312.293 184.17 312.065C183.459 312.988 183.937 314.623 184.842 315.249C185.746 315.875 186.871 315.748 187.894 315.519C190.156 315.019 192.341 314.104 194.375 312.808C193.963 314.108 194.678 315.631 195.693 316.278C196.707 316.926 197.941 316.878 199.078 316.655C204.445 315.594 208.924 311.083 214.158 309.31C222.528 306.482 231.284 310.993 239.983 311.311C242.706 311.412 245.499 311.078 247.98 309.719C251.023 308.047 253.478 304.911 256.692 303.797C260.262 302.565 264.359 303.982 267.627 301.854C270.002 300.31 267.859 288.407 267.253 286.114C266.142 281.922 265.027 279.141 261.325 278.716C251.958 277.607 241.301 280.144 231.864 280.802Z" fill="#EFB7B9"/>
<path d="M255.23 277.554C255.23 277.554 269.409 292.058 261.228 307.883L277.037 301.286V287.441C277.037 286.783 271.034 276.896 271.034 276.896L263.942 275.575L255.23 277.554Z" fill="white"/>
<path d="M106.764 276.657H112.082C114.994 276.657 117.786 278.055 119.845 280.543C121.904 283.031 123.061 286.406 123.061 289.924V309.618H95.7861V289.924C95.7861 288.182 96.0701 286.457 96.6218 284.847C97.1735 283.238 97.9822 281.775 99.0016 280.543C100.021 279.311 101.231 278.334 102.563 277.667C103.895 277 105.323 276.657 106.764 276.657Z" fill="#3F3D56"/>
<path opacity="0.1" d="M106.764 276.657H112.082C114.994 276.657 117.786 278.055 119.845 280.543C121.904 283.031 123.061 286.406 123.061 289.924V309.618H95.7861V289.924C95.7861 288.182 96.0701 286.457 96.6218 284.847C97.1735 283.238 97.9822 281.775 99.0016 280.543C100.021 279.311 101.231 278.334 102.563 277.667C103.895 277 105.323 276.657 106.764 276.657Z" fill="black"/>
<path d="M108.332 283.906C109.538 283.906 110.515 282.726 110.515 281.269C110.515 279.812 109.538 278.631 108.332 278.631C107.127 278.631 106.15 279.812 106.15 281.269C106.15 282.726 107.127 283.906 108.332 283.906Z" fill="#3F3D56"/>
<path d="M108.332 280.61C109.538 280.61 110.515 279.43 110.515 277.973C110.515 276.516 109.538 275.335 108.332 275.335C107.127 275.335 106.15 276.516 106.15 277.973C106.15 279.43 107.127 280.61 108.332 280.61Z" fill="#3F3D56"/>
<path d="M108.332 277.315C109.538 277.315 110.515 276.134 110.515 274.678C110.515 273.221 109.538 272.04 108.332 272.04C107.127 272.04 106.15 273.221 106.15 274.678C106.15 276.134 107.127 277.315 108.332 277.315Z" fill="#3F3D56"/>
<path d="M108.332 274.02C109.538 274.02 110.515 272.839 110.515 271.382C110.515 269.925 109.538 268.745 108.332 268.745C107.127 268.745 106.15 269.925 106.15 271.382C106.15 272.839 107.127 274.02 108.332 274.02Z" fill="#3F3D56"/>
<path d="M108.332 270.724C109.538 270.724 110.515 269.543 110.515 268.086C110.515 266.63 109.538 265.449 108.332 265.449C107.127 265.449 106.15 266.63 106.15 268.086C106.15 269.543 107.127 270.724 108.332 270.724Z" fill="#3F3D56"/>
<path d="M108.332 267.428C109.538 267.428 110.515 266.247 110.515 264.791C110.515 263.334 109.538 262.153 108.332 262.153C107.127 262.153 106.15 263.334 106.15 264.791C106.15 266.247 107.127 267.428 108.332 267.428Z" fill="#3F3D56"/>
<path d="M108.332 264.128C109.538 264.128 110.515 262.947 110.515 261.49C110.515 260.033 109.538 258.853 108.332 258.853C107.127 258.853 106.15 260.033 106.15 261.49C106.15 262.947 107.127 264.128 108.332 264.128Z" fill="#3F3D56"/>
<path d="M111.608 265.449C112.814 265.449 113.791 264.268 113.791 262.812C113.791 261.355 112.814 260.174 111.608 260.174C110.403 260.174 109.426 261.355 109.426 262.812C109.426 264.268 110.403 265.449 111.608 265.449Z" fill="#3F3D56"/>
<path d="M113.79 264.128C114.996 264.128 115.973 262.947 115.973 261.49C115.973 260.033 114.996 258.853 113.79 258.853C112.585 258.853 111.608 260.033 111.608 261.49C111.608 262.947 112.585 264.128 113.79 264.128Z" fill="#3F3D56"/>
<path d="M115.973 262.812C117.178 262.812 118.156 261.631 118.156 260.174C118.156 258.717 117.178 257.537 115.973 257.537C114.768 257.537 113.791 258.717 113.791 260.174C113.791 261.631 114.768 262.812 115.973 262.812Z" fill="#3F3D56"/>
<path d="M108.332 260.832C109.538 260.832 110.515 259.651 110.515 258.195C110.515 256.738 109.538 255.557 108.332 255.557C107.127 255.557 106.15 256.738 106.15 258.195C106.15 259.651 107.127 260.832 108.332 260.832Z" fill="#3F3D56"/>
<path d="M108.332 257.536C109.538 257.536 110.515 256.355 110.515 254.899C110.515 253.442 109.538 252.261 108.332 252.261C107.127 252.261 106.15 253.442 106.15 254.899C106.15 256.355 107.127 257.536 108.332 257.536Z" fill="#3F3D56"/>
<path d="M108.332 254.241C109.538 254.241 110.515 253.06 110.515 251.603C110.515 250.147 109.538 248.966 108.332 248.966C107.127 248.966 106.15 250.147 106.15 251.603C106.15 253.06 107.127 254.241 108.332 254.241Z" fill="#3F3D56"/>
<path d="M108.332 250.945C109.538 250.945 110.515 249.765 110.515 248.308C110.515 246.851 109.538 245.67 108.332 245.67C107.127 245.67 106.15 246.851 106.15 248.308C106.15 249.765 107.127 250.945 108.332 250.945Z" fill="#3F3D56"/>
<path d="M117.396 239.801C116.851 239.896 116.307 239.965 115.762 240.008C116.268 239.474 116.738 238.892 117.167 238.267C116.865 237.159 116.42 236.115 115.85 235.173C115.309 235.54 114.711 235.768 114.093 235.842C113.553 235.937 113.009 236.006 112.464 236.054C113.18 235.348 113.848 234.287 114.55 233.401C112.976 231.676 110.959 230.658 108.838 230.517C106.716 230.376 104.619 231.12 102.898 232.624C101.176 234.129 99.9349 236.303 99.3816 238.782C98.8284 241.261 98.997 243.894 99.859 246.241C100.721 248.588 102.224 250.505 104.117 251.672C106.009 252.839 108.176 253.184 110.254 252.65C112.333 252.116 114.196 250.736 115.532 248.739C116.868 246.743 117.596 244.252 117.593 241.685C117.593 241.039 117.546 240.394 117.453 239.758L117.396 239.801Z" fill="#8D8D9A"/>
<path d="M124.672 252.904C124.116 253.317 123.487 253.57 122.837 253.641C122.296 253.737 121.752 253.811 121.207 253.854C121.786 253.226 122.326 252.549 122.823 251.826C121.508 251.412 120.111 251.605 118.907 252.369C117.703 253.132 116.778 254.411 116.312 255.955C115.847 257.499 115.875 259.198 116.391 260.718C116.906 262.239 117.873 263.472 119.101 264.178C120.329 264.883 121.731 265.009 123.032 264.531C124.334 264.054 125.441 263.007 126.137 261.596C126.834 260.184 127.069 258.51 126.798 256.899C126.528 255.289 125.769 253.858 124.672 252.888V252.904Z" fill="#8D8D9A"/>
<path d="M105.06 265.449C106.266 265.449 107.243 264.268 107.243 262.812C107.243 261.355 106.266 260.174 105.06 260.174C103.855 260.174 102.878 261.355 102.878 262.812C102.878 264.268 103.855 265.449 105.06 265.449Z" fill="#3F3D56"/>
<path d="M102.878 264.128C104.084 264.128 105.061 262.947 105.061 261.49C105.061 260.033 104.084 258.853 102.878 258.853C101.673 258.853 100.696 260.033 100.696 261.49C100.696 262.947 101.673 264.128 102.878 264.128Z" fill="#3F3D56"/>
<path d="M100.696 262.812C101.901 262.812 102.878 261.631 102.878 260.174C102.878 258.717 101.901 257.537 100.696 257.537C99.4903 257.537 98.5132 258.717 98.5132 260.174C98.5132 261.631 99.4903 262.812 100.696 262.812Z" fill="#3F3D56"/>
<path d="M91.9966 252.904C92.5531 253.317 93.1814 253.57 93.8321 253.641C94.3723 253.737 94.9168 253.811 95.4613 253.854C94.8815 253.228 94.3413 252.55 93.8453 251.826C95.1612 251.412 96.5577 251.605 97.7618 252.369C98.9659 253.132 99.8911 254.411 100.356 255.955C100.822 257.499 100.794 259.198 100.278 260.718C99.7624 262.239 98.7959 263.472 97.5676 264.178C96.3393 264.883 94.9376 265.009 93.6364 264.531C92.3352 264.054 91.2282 263.007 90.5317 261.596C89.8352 260.184 89.5994 258.51 89.8703 256.899C90.1412 255.289 90.8994 253.858 91.9966 252.888V252.904Z" fill="#8D8D9A"/>
<path d="M106.764 278.61H112.082C114.994 278.61 117.786 280.008 119.845 282.496C121.904 284.984 123.06 288.358 123.06 291.877V309.321C123.06 309.917 122.864 310.49 122.515 310.912C122.166 311.334 121.692 311.571 121.199 311.571H97.6349C97.1411 311.571 96.6675 311.334 96.3183 310.912C95.9691 310.49 95.7729 309.917 95.7729 309.321V291.877C95.7729 290.133 96.0573 288.407 96.6099 286.796C97.1624 285.186 97.9722 283.722 98.9931 282.49C100.014 281.258 101.226 280.281 102.559 279.615C103.893 278.949 105.322 278.608 106.764 278.61Z" fill="#3F3D56"/>
<g opacity="0.1">
<path opacity="0.1" d="M117.545 240.523C117.324 240.808 117.09 241.078 116.843 241.33C117.093 241.33 117.339 241.282 117.589 241.25C117.581 241.006 117.567 240.762 117.545 240.523Z" fill="black"/>
<path opacity="0.1" d="M113.567 237.371C114.116 237.328 114.656 237.259 115.2 237.164C115.689 237.089 116.166 236.932 116.619 236.697C116.397 236.166 116.141 235.657 115.855 235.174C115.582 235.375 115.286 235.527 114.976 235.625C114.546 236.251 114.075 236.835 113.567 237.371Z" fill="black"/>
<path opacity="0.1" d="M100.151 243.033C100.148 241.021 100.594 239.045 101.442 237.314C102.289 235.582 103.508 234.159 104.969 233.194C106.43 232.23 108.079 231.759 109.743 231.832C111.407 231.904 113.024 232.518 114.423 233.608L114.563 233.428C113.65 232.446 112.585 231.692 111.43 231.209C110.274 230.727 109.051 230.526 107.831 230.617C106.611 230.709 105.418 231.091 104.32 231.742C103.223 232.393 102.243 233.3 101.437 234.411C100.631 235.522 100.015 236.815 99.6246 238.214C99.2339 239.614 99.0763 241.094 99.1609 242.568C99.2454 244.041 99.5704 245.48 100.117 246.802C100.664 248.123 101.422 249.3 102.347 250.266C100.927 248.247 100.148 245.683 100.151 243.033Z" fill="black"/>
</g>
<g opacity="0.1">
<path opacity="0.1" d="M121.208 255.17C121.752 255.127 122.297 255.058 122.837 254.963C123.488 254.89 124.116 254.635 124.672 254.22C125.289 254.768 125.803 255.468 126.181 256.272C126.56 257.077 126.793 257.969 126.868 258.89C126.889 258.659 126.899 258.427 126.899 258.195C126.903 257.164 126.706 256.146 126.325 255.225C125.943 254.303 125.388 253.502 124.703 252.888C124.146 253.301 123.518 253.554 122.867 253.625L122.428 253.694C122.054 254.224 121.645 254.717 121.208 255.17Z" fill="black"/>
<path opacity="0.1" d="M121.427 252.92C121.609 252.922 121.791 252.938 121.972 252.967C122.257 252.601 122.538 252.208 122.824 251.826C122.016 251.566 121.17 251.533 120.351 251.731C119.531 251.929 118.761 252.352 118.098 252.968C117.436 253.584 116.9 254.376 116.531 255.282C116.163 256.188 115.972 257.185 115.973 258.195C115.973 258.417 115.973 258.635 115.999 258.853C116.135 257.226 116.765 255.719 117.768 254.623C118.771 253.526 120.075 252.919 121.427 252.92Z" fill="black"/>
</g>
<g opacity="0.1">
<path opacity="0.1" d="M95.4612 255.17C94.9167 255.127 94.3722 255.058 93.832 254.963C93.1809 254.89 92.5527 254.635 91.9965 254.22C91.3799 254.768 90.8658 255.468 90.4875 256.272C90.1092 257.077 89.8753 257.969 89.8008 258.89C89.7795 258.659 89.7693 258.427 89.7701 258.195C89.7659 257.164 89.9625 256.146 90.344 255.225C90.7254 254.303 91.2809 253.502 91.9657 252.888C92.5223 253.301 93.1505 253.554 93.8013 253.625L94.2404 253.694C94.6128 254.226 95.0211 254.72 95.4612 255.17Z" fill="black"/>
<path opacity="0.1" d="M95.2417 252.92C95.0581 252.922 94.8748 252.938 94.6927 252.967C94.4117 252.601 94.1306 252.208 93.8452 251.826C94.6525 251.566 95.4986 251.533 96.318 251.731C97.1374 251.929 97.9081 252.352 98.5704 252.968C99.2328 253.584 99.769 254.376 100.137 255.282C100.506 256.188 100.697 257.185 100.696 258.195C100.696 258.417 100.696 258.635 100.669 258.853C100.534 257.226 99.9042 255.719 98.9012 254.623C97.8983 253.526 96.594 252.919 95.2417 252.92Z" fill="black"/>
</g>
<path d="M80.4427 317.95H37.5397C37.0563 317.95 36.5928 317.718 36.2511 317.304C35.9093 316.891 35.7173 316.331 35.7173 315.747V291.208C35.7172 290.837 35.7949 290.471 35.9433 290.145C36.0916 289.82 36.3057 289.545 36.5657 289.346C36.8256 289.148 37.1229 289.032 37.4299 289.009C37.7368 288.987 38.0435 289.059 38.3213 289.218C50.6477 296.287 63.927 298.712 79.5996 289.33C79.8774 289.164 80.1855 289.087 80.4949 289.105C80.8043 289.122 81.1049 289.235 81.3684 289.432C81.6318 289.629 81.8495 289.903 82.001 290.23C82.1525 290.556 82.2328 290.924 82.2344 291.299V315.71C82.2384 315.999 82.1953 316.287 82.1075 316.556C82.0197 316.825 81.8888 317.07 81.7224 317.278C81.556 317.486 81.3574 317.653 81.1378 317.768C80.9183 317.883 80.6821 317.945 80.4427 317.95Z" fill="#8D8D9A"/>
<path opacity="0.1" d="M80.4427 317.95H37.5397C37.0563 317.95 36.5928 317.718 36.2511 317.304C35.9093 316.891 35.7173 316.331 35.7173 315.747V291.208C35.7172 290.837 35.7949 290.471 35.9433 290.145C36.0916 289.82 36.3057 289.545 36.5657 289.346C36.8256 289.148 37.1229 289.032 37.4299 289.009C37.7368 288.987 38.0435 289.059 38.3213 289.218C50.6477 296.287 63.927 298.712 79.5996 289.33C79.8774 289.164 80.1855 289.087 80.4949 289.105C80.8043 289.122 81.1049 289.235 81.3684 289.432C81.6318 289.629 81.8495 289.903 82.001 290.23C82.1525 290.556 82.2328 290.924 82.2344 291.299V315.71C82.2384 315.999 82.1953 316.287 82.1075 316.556C82.0197 316.825 81.8888 317.07 81.7224 317.278C81.556 317.486 81.3574 317.653 81.1378 317.768C80.9183 317.883 80.6821 317.945 80.4427 317.95Z" fill="black"/>
<path d="M58.6925 299.296C60.0943 299.296 61.2307 297.498 61.2307 295.279C61.2307 293.06 60.0943 291.262 58.6925 291.262C57.2907 291.262 56.1543 293.06 56.1543 295.279C56.1543 297.498 57.2907 299.296 58.6925 299.296Z" fill="#3F3D56"/>
<path d="M58.6925 294.388C60.0943 294.388 61.2307 292.589 61.2307 290.37C61.2307 288.152 60.0943 286.353 58.6925 286.353C57.2907 286.353 56.1543 288.152 56.1543 290.37C56.1543 292.589 57.2907 294.388 58.6925 294.388Z" fill="#3F3D56"/>
<path d="M58.6925 289.473C60.0943 289.473 61.2307 287.674 61.2307 285.456C61.2307 283.237 60.0943 281.438 58.6925 281.438C57.2907 281.438 56.1543 283.237 56.1543 285.456C56.1543 287.674 57.2907 289.473 58.6925 289.473Z" fill="#3F3D56"/>
<path d="M58.6925 284.564C60.0943 284.564 61.2307 282.766 61.2307 280.547C61.2307 278.328 60.0943 276.53 58.6925 276.53C57.2907 276.53 56.1543 278.328 56.1543 280.547C56.1543 282.766 57.2907 284.564 58.6925 284.564Z" fill="#3F3D56"/>
<path d="M58.6925 279.65C60.0943 279.65 61.2307 277.852 61.2307 275.633C61.2307 273.414 60.0943 271.616 58.6925 271.616C57.2907 271.616 56.1543 273.414 56.1543 275.633C56.1543 277.852 57.2907 279.65 58.6925 279.65Z" fill="#3F3D56"/>
<path d="M58.6925 274.736C60.0943 274.736 61.2307 272.937 61.2307 270.718C61.2307 268.5 60.0943 266.701 58.6925 266.701C57.2907 266.701 56.1543 268.5 56.1543 270.718C56.1543 272.937 57.2907 274.736 58.6925 274.736Z" fill="#3F3D56"/>
<path d="M58.6925 269.827C60.0943 269.827 61.2307 268.028 61.2307 265.81C61.2307 263.591 60.0943 261.792 58.6925 261.792C57.2907 261.792 56.1543 263.591 56.1543 265.81C56.1543 268.028 57.2907 269.827 58.6925 269.827Z" fill="#3F3D56"/>
<path d="M68.2128 232.197C68.5574 231.661 68.8728 231.099 69.1569 230.514L62.4821 229.188L69.7014 229.251C70.3979 227.428 70.7779 225.451 70.818 223.443C70.858 221.435 70.5572 219.438 69.9342 217.576L60.2513 223.647L69.1833 215.687C68.3469 213.939 67.2217 212.418 65.8777 211.219C64.5336 210.019 62.9996 209.167 61.3712 208.715C59.7428 208.264 58.0549 208.222 56.4126 208.593C54.7703 208.964 53.2088 209.74 51.8255 210.873C50.4422 212.005 49.2666 213.469 48.3721 215.175C47.4775 216.88 46.8831 218.79 46.626 220.785C46.3688 222.78 46.4544 224.817 46.8773 226.771C47.3002 228.724 48.0515 230.551 49.0843 232.138C48.5416 232.967 48.0763 233.866 47.6966 234.818L56.3563 240.316L47.1345 236.548C46.4882 238.864 46.3291 241.338 46.6718 243.747C47.0145 246.156 47.8481 248.424 49.0974 250.346C47.6857 252.515 46.8075 255.12 46.5632 257.864C46.3189 260.608 46.7185 263.38 47.7162 265.862C48.7139 268.344 50.2695 270.437 52.2051 271.902C54.1406 273.366 56.3781 274.143 58.6617 274.143C60.9453 274.143 63.1827 273.366 65.1183 271.902C67.0539 270.437 68.6095 268.344 69.6072 265.862C70.6049 263.38 71.0044 260.608 70.7602 257.864C70.5159 255.12 69.6377 252.515 68.226 250.346C69.9126 247.754 70.8296 244.553 70.8296 241.255C70.8296 237.958 69.9126 234.756 68.226 232.165L68.2128 232.197Z" fill="#8D8D9A"/>
<path opacity="0.1" d="M46.4717 241.287C46.4677 244.585 47.3853 247.788 49.0757 250.378C47.664 252.547 46.7858 255.152 46.5415 257.896C46.2972 260.64 46.6968 263.411 47.6945 265.894C48.6922 268.376 50.2478 270.469 52.1834 271.933C54.1189 273.398 56.3564 274.174 58.64 274.174C60.9236 274.174 63.161 273.398 65.0966 271.933C67.0322 270.469 68.5878 268.376 69.5855 265.894C70.5832 263.411 70.9827 260.64 70.7385 257.896C70.4942 255.152 69.616 252.547 68.2042 250.378C69.8334 247.878 46.4717 239.637 46.4717 241.287Z" fill="black"/>
<path d="M80.4427 319.25H37.5397C37.0563 319.25 36.5928 319.018 36.2511 318.605C35.9093 318.192 35.7173 317.631 35.7173 317.047V291.208C35.7172 290.837 35.7949 290.471 35.9433 290.145C36.0916 289.82 36.3057 289.545 36.5657 289.346C36.8256 289.148 37.1229 289.032 37.4299 289.009C37.7368 288.987 38.0435 289.059 38.3213 289.218C50.6477 296.287 60.4228 304.529 79.5996 289.33C80.7369 288.428 82.2344 289.659 82.2344 291.299V317.037C82.2368 317.616 82.05 318.174 81.7146 318.588C81.3792 319.002 80.9222 319.24 80.4427 319.25Z" fill="#8D8D9A"/>
<path d="M398.804 311.943L335.508 322.063L332.341 322.567L301.396 302.592V297.917L398.101 285.169L398.804 311.943Z" fill="#9C9CA1"/>
<path d="M319.33 304.714L387.9 294.944L387.198 310.244L333.786 314.978L319.33 304.714Z" fill="#939498"/>
<path opacity="0.4" d="M335.507 317.037V322.057L332.341 322.588L301.391 302.592V297.917L330.931 317.021C330.931 317.021 334.805 317.462 335.507 317.037Z" fill="black"/>
<path d="M347.658 237.355L333.448 316.984C333.305 317.781 333.322 318.608 333.499 319.396C333.676 320.183 334.007 320.907 334.465 321.507C334.922 322.107 335.492 322.565 336.127 322.843C336.762 323.121 337.442 323.21 338.111 323.103L428.015 308.721C428.798 308.596 429.536 308.208 430.145 307.6C430.754 306.991 431.209 306.188 431.457 305.282L450.854 234.595C451.068 233.811 451.121 232.975 451.009 232.16C450.897 231.346 450.622 230.576 450.209 229.918C449.796 229.26 449.257 228.733 448.638 228.383C448.019 228.033 447.338 227.87 446.656 227.908L351.575 233.364C350.65 233.417 349.765 233.836 349.057 234.558C348.349 235.279 347.858 236.262 347.658 237.355Z" fill="#A9D4EA"/>
<path d="M397.058 266.731C397.279 264.195 396.365 262.001 395.016 261.829C393.668 261.658 392.396 263.575 392.176 266.111C391.955 268.647 392.869 270.841 394.218 271.013C395.566 271.184 396.838 269.267 397.058 266.731Z" fill="white"/>
</g>
<defs>
<clipPath id="clip0">
<rect width="505" height="333" fill="white" transform="translate(-6)"/>
</clipPath>
</defs>
</svg>
