<svg width="504" height="333" viewBox="0 0 504 333" fill="none" xmlns="http://www.w3.org/2000/svg">
<g clip-path="url(#clip0)">
<path d="M475.723 271.758C473.457 271.758 471.283 272.782 469.256 274.641C463.744 256.187 455.211 244.328 445.624 244.328C436.038 244.328 427.505 256.187 421.993 274.641C419.966 272.782 417.792 271.758 415.526 271.758C404.635 271.758 395.806 295.092 395.806 323.876H495.443C495.443 295.092 486.614 271.758 475.723 271.758Z" fill="#A9D4EA"/>
<path d="M180.962 242.267C178.618 242.311 176.351 243.052 174.494 244.381C168.982 230.848 160.449 222.151 150.863 222.151C141.276 222.151 132.743 230.848 127.231 244.381C125.374 243.052 123.107 242.311 120.764 242.267C109.873 242.267 101.044 259.378 101.044 280.486H200.681C200.681 259.378 191.853 242.267 180.962 242.267Z" fill="#A9D4EA"/>
<path d="M504 334H-20.124C-19.6518 294.438 97.5001 262.407 241.938 262.407C386.376 262.407 503.528 294.438 504 334Z" fill="#FFFEFC"/>
<path d="M46.036 178.451C83.059 178.451 113.072 150.568 113.072 116.173C113.072 81.7785 83.059 53.896 46.036 53.896C9.01305 53.896 -21 81.7785 -21 116.173C-21 150.568 9.01305 178.451 46.036 178.451Z" fill="#A9D4EA"/>
<path d="M48.1984 294.467H44.4141V123.421C44.4141 118.607 45.0495 113.812 46.3062 109.142C47.5629 113.812 48.1983 118.607 48.1983 123.421L48.1984 294.467Z" fill="#3F3D56"/>
<path d="M46.5187 169.137L44.5254 166.148L72.5256 150.029C74.4681 148.911 76.7157 148.335 79.0006 148.37C78.0171 150.286 76.4614 151.899 74.5189 153.018L46.5187 169.137Z" fill="#3F3D56"/>
<path d="M45.2002 152.892L47.1935 149.904L27.9247 138.811C26.3966 137.931 24.5685 137.617 22.8027 137.93C23.2866 139.539 24.4033 140.92 25.9313 141.799L45.2002 152.892Z" fill="#3F3D56"/>
<path d="M45.2002 221.196L47.1935 218.207L27.9247 207.115C26.3966 206.235 24.5685 205.921 22.8027 206.234C23.2866 207.842 24.4033 209.223 25.9313 210.103L45.2002 221.196Z" fill="#3F3D56"/>
<path d="M401.513 176.833C437.052 176.833 465.863 150.068 465.863 117.052C465.863 84.0359 437.052 57.271 401.513 57.271C365.974 57.271 337.164 84.0359 337.164 117.052C337.164 150.068 365.974 176.833 401.513 176.833Z" fill="#A9D4EA"/>
<path d="M399.438 288.2H403.07V124.009C403.07 119.389 402.46 114.785 401.254 110.303C400.047 114.785 399.437 119.389 399.438 124.009V288.2Z" fill="#3F3D56"/>
<path d="M401.05 167.893L402.964 165.024L376.086 149.551C374.221 148.478 372.063 147.925 369.87 147.958C370.814 149.797 372.307 151.346 374.172 152.42L401.05 167.893Z" fill="#3F3D56"/>
<path d="M402.316 152.299L400.402 149.43L418.899 138.782C420.366 137.938 422.121 137.636 423.816 137.937C423.351 139.481 422.279 140.806 420.812 141.651L402.316 152.299Z" fill="#3F3D56"/>
<path d="M402.316 217.865L400.402 214.997L418.899 204.349C420.366 203.504 422.121 203.202 423.816 203.503C423.351 205.047 422.279 206.373 420.812 207.217L402.316 217.865Z" fill="#3F3D56"/>
<path d="M55.9505 327.998C55.3705 328 54.797 328.113 54.2663 328.33C52.8309 326.205 50.6088 324.84 48.1123 324.84C45.6158 324.84 43.3937 326.205 41.9583 328.33C41.4277 328.113 40.8541 328 40.2741 327.998C37.4379 327.998 35.1387 330.685 35.1387 334H61.0859C61.0859 330.685 58.7867 327.998 55.9505 327.998Z" fill="#A9D4EA"/>
<path d="M216.823 323.893C216.211 323.905 215.62 324.101 215.138 324.452C213.703 320.873 211.481 318.573 208.984 318.573C206.488 318.573 204.266 320.873 202.83 324.452C202.349 324.101 201.758 323.905 201.146 323.893C198.31 323.893 196.011 328.418 196.011 334H221.958C221.958 328.418 219.659 323.893 216.823 323.893Z" fill="#A9D4EA"/>
<path d="M440.489 323.893C439.877 323.905 439.286 324.101 438.804 324.452C437.369 320.873 435.147 318.573 432.65 318.573C430.154 318.573 427.932 320.873 426.496 324.452C426.015 324.101 425.424 323.905 424.812 323.893C421.976 323.893 419.677 328.418 419.677 334H445.624C445.624 328.418 443.325 323.893 440.489 323.893Z" fill="#8D8D9A"/>
<path d="M301.453 232.409L300.629 236.046L299.599 239.684L296.302 282.951L307.636 283.717L312.788 236.429L311.964 233.94L301.453 232.409Z" fill="#2F2E41"/>
<path d="M291.768 277.016L287.028 283.717C287.028 283.717 273.839 293.672 283.318 294.246C292.798 294.821 296.301 288.311 296.301 288.311C296.301 288.311 299.599 287.354 300.011 286.397C300.423 285.44 299.186 277.016 299.186 277.016H291.768Z" fill="#2F2E41"/>
<path d="M297.125 282.185C297.125 282.185 292.386 293.289 293.004 295.204C293.622 297.118 294.652 297.118 294.446 298.841C294.24 300.564 293.622 304.584 301.453 304.776C309.284 304.967 305.575 295.203 305.575 295.203L304.544 282.185H297.125Z" fill="#2F2E41"/>
<path d="M282.701 200.054C282.701 200.054 279.816 204.649 280.228 207.52C280.64 210.392 286.616 241.215 286.616 241.215L291.356 278.739L301.866 277.973L297.744 243.321L298.775 215.753L300.629 236.046L312.788 236.429L320.001 207.52C320.001 207.52 314.643 199.48 313.612 198.905C312.582 198.331 282.701 200.054 282.701 200.054Z" fill="#2F2E41"/>
<path d="M297.022 141.95C301.916 141.95 305.884 138.264 305.884 133.718C305.884 129.171 301.916 125.485 297.022 125.485C292.128 125.485 288.161 129.171 288.161 133.718C288.161 138.264 292.128 141.95 297.022 141.95Z" fill="#FFB8B8"/>
<path d="M294.447 138.982L295.683 149.895L309.284 147.98L301.866 135.153L294.447 138.982Z" fill="#FFB8B8"/>
<path d="M308.254 144.726C308.254 144.726 301.247 149.512 294.446 146.832L284.143 171.145V201.585C284.143 201.585 299.598 205.797 308.254 200.82C308.254 200.82 314.436 199.671 315.466 199.862C316.497 200.054 311.757 147.98 311.757 147.98L308.254 144.726Z" fill="#D0CDE1"/>
<path d="M301.865 145.874L306.605 152.192C307.527 153.771 307.819 155.602 307.429 157.361C306.811 160.424 306.193 200.437 311.963 201.969C317.733 203.5 321.442 203.309 321.442 203.309C321.442 203.309 316.291 180.335 318.145 176.315L323.915 152.192L308.666 144.151C308.666 144.151 307.712 140.514 306.128 142.524C304.952 143.885 303.504 145.022 301.865 145.874Z" fill="#575A89"/>
<path d="M288.059 181.483L295.098 144.726L288.059 148.172C288.059 148.172 280.022 151.235 278.373 154.872C276.724 158.51 270.13 175.932 270.13 175.932C270.13 175.932 271.779 186.461 277.961 182.058C284.143 177.655 282.701 175.549 282.701 175.549C282.701 175.549 277.343 195.842 278.167 196.416C278.991 196.991 279.403 202.351 279.403 202.351L285.792 201.203L288.059 181.483Z" fill="#575A89"/>
<path d="M280.021 160.999L282.7 157.361C282.7 157.361 288.759 146.066 293.149 149.895C297.538 153.724 284.967 162.53 284.967 162.53L280.021 160.999Z" fill="#FFB8B8"/>
<path d="M316.29 200.628L314.642 202.593L318.763 207.52L320.618 204.074L316.29 200.628Z" fill="#FFB8B8"/>
<path d="M293.47 126.898C292.561 126.907 291.765 127.43 291.019 127.911C290.272 128.391 289.426 128.871 288.523 128.777C288.101 128.707 287.704 128.544 287.363 128.303C287.023 128.061 286.749 127.748 286.566 127.388C286.206 126.667 285.974 125.896 285.879 125.106L286.907 125.443L286.074 124.564L294.926 122.065C297.605 121.309 300.632 120.581 303.085 121.833C304.353 122.559 305.38 123.598 306.049 124.834C307.444 127.203 308.156 129.867 308.114 132.566C308.073 135.266 307.281 137.91 305.814 140.241C304.456 140.134 303.571 138.813 303.351 137.564C303.131 136.315 303.345 135.021 303.074 133.78C302.802 132.54 301.783 131.269 300.421 131.308L299.704 132.729C300.163 131.82 297.438 129.6 296.788 129.188C296.217 128.885 295.685 128.524 295.2 128.113C294.637 127.566 294.496 126.889 293.47 126.898Z" fill="#2F2E41"/>
<path d="M280.845 158.893L285.791 161.765L280.845 180.91C280.845 180.91 273.014 189.908 270.129 180.91C267.714 173.378 276.85 163.029 279.892 159.856C280.484 159.239 280.845 158.893 280.845 158.893Z" fill="#575A89"/>
<path d="M319.175 151.809H323.915C323.915 151.809 328.037 159.276 328.449 163.296C328.861 167.316 328.861 183.206 328.861 183.206L320.824 205.414L314.642 201.202L319.793 187.993C319.793 187.993 319.175 185.121 319.793 183.781C320.412 182.441 317.939 175.549 317.527 175.166C317.115 174.783 319.175 151.809 319.175 151.809Z" fill="#575A89"/>
</g>
<defs>
<clipPath id="clip0">
<rect width="525" height="334" fill="white" transform="translate(-21)"/>
</clipPath>
</defs>
</svg>
