<svg width="512" height="339" viewBox="0 0 512 339" fill="none" xmlns="http://www.w3.org/2000/svg">
<g clip-path="url(#clip0)">
<path d="M470.888 215.311L419.353 239.386L464.964 205.723C457.551 194.302 449.223 183.485 440.06 173.376L216.559 228.209L418.444 152.195C409.218 144.16 399.421 136.79 389.127 130.139L48.5636 184.284C12.4044 228.915 -7.30712 284.355 -7.33496 341.502H505.306C505.285 297.182 493.412 253.652 470.888 215.311Z" fill="#FFFEFC"/>
<path d="M361.255 114.507C326.289 97.6742 287.888 88.9517 248.985 89.0061C169.808 89.0061 99.02 124.443 52.0022 180.122C132.516 162.709 272.696 132.567 361.255 114.507Z" fill="#F2F2F2"/>
<path opacity="0.4" d="M411.673 138.837C415.915 138.837 419.353 135.443 419.353 131.257C419.353 127.07 415.915 123.677 411.673 123.677C407.432 123.677 403.994 127.07 403.994 131.257C403.994 135.443 407.432 138.837 411.673 138.837Z" fill="#8D8D9A"/>
<path opacity="0.4" d="M397.461 140.195C400.436 140.195 402.848 137.814 402.848 134.877C402.848 131.941 400.436 129.56 397.461 129.56C394.485 129.56 392.073 131.941 392.073 134.877C392.073 137.814 394.485 140.195 397.461 140.195Z" fill="#8D8D9A"/>
<path opacity="0.4" d="M48.1225 167.219C57.0052 167.219 64.206 160.111 64.206 151.343C64.206 142.576 57.0052 135.468 48.1225 135.468C39.2399 135.468 32.0391 142.576 32.0391 151.343C32.0391 160.111 39.2399 167.219 48.1225 167.219Z" fill="#8D8D9A"/>
<path opacity="0.4" d="M18.3559 170.062C24.587 170.062 29.6384 165.076 29.6384 158.926C29.6384 152.775 24.587 147.79 18.3559 147.79C12.1248 147.79 7.07349 152.775 7.07349 158.926C7.07349 165.076 12.1248 170.062 18.3559 170.062Z" fill="#8D8D9A"/>
<path d="M452.521 340.993L411.632 281.045C411.632 281.045 473.555 302.383 466.527 340.993H452.521Z" fill="#3F3D56"/>
<path d="M454.126 340.993L495.015 281.045C495.015 281.045 433.092 302.383 440.119 340.993H454.126Z" fill="#8D8D9A"/>
<path d="M94.0587 67.4526C94.0587 64.1519 89.2906 61.4762 83.4088 61.4762C83.2924 61.4762 83.1772 61.4791 83.0617 61.4811C81.2874 56.1125 72.8998 52.0469 62.8189 52.0469C54.2419 52.0469 46.8909 54.9901 43.7954 59.1747C41.5083 58.5773 39.1515 58.2795 36.7857 58.2889C27.767 58.2888 20.4558 62.3916 20.4558 67.4526C20.4558 72.0499 26.4891 75.8558 34.3547 76.5147C40.0703 77.5462 48.9982 78.2101 59.0322 78.2101C76.0673 78.2101 88.532 75.0026 88.8447 72.5917C91.9661 71.5497 94.0587 69.6386 94.0587 67.4526Z" fill="#F2F2F2"/>
<path d="M351.412 69.9931C351.412 66.6925 346.644 64.0168 340.762 64.0168C340.645 64.0168 340.53 64.0196 340.415 64.0217C338.64 58.6531 330.253 54.5874 320.172 54.5874C311.595 54.5874 304.244 57.5307 301.148 61.7153C298.861 61.1178 296.505 60.82 294.139 60.8294C285.12 60.8294 277.809 64.9321 277.809 69.9931C277.809 74.5905 283.842 78.3964 291.708 79.0553C297.423 80.0868 306.351 80.7506 316.385 80.7506C333.42 80.7506 345.885 77.5431 346.198 75.1322C349.319 74.0902 351.412 72.1792 351.412 69.9931Z" fill="#F2F2F2"/>
<path d="M495.015 27.0408C495.015 21.2474 486.645 16.5508 476.321 16.5508C476.117 16.5508 475.915 16.5558 475.712 16.5595C472.598 7.13625 457.875 0 440.181 0C425.126 0 412.224 5.16613 406.79 12.5111C402.776 11.4625 398.639 10.9397 394.486 10.9562C378.656 10.9562 365.823 18.1575 365.823 27.0408C365.823 35.1103 376.413 41.7906 390.219 42.9471C400.252 44.7576 415.922 45.9228 433.535 45.9228C463.435 45.9228 485.314 40.2929 485.863 36.0611C491.341 34.2322 495.015 30.8779 495.015 27.0408Z" fill="#F2F2F2"/>
<path d="M280.47 147.284C269.823 129.528 248.76 128.7 248.76 128.7C248.76 128.7 228.235 126.11 215.069 153.153C202.796 178.359 185.859 202.696 212.342 208.596L217.125 193.901L220.088 209.691C223.858 209.958 227.641 210.022 231.419 209.882C259.78 208.978 286.789 210.146 285.92 200.101C284.764 186.747 290.714 164.369 280.47 147.284Z" fill="#2F2E41"/>
<path d="M210.83 302.784C210.517 304.737 210.063 306.665 209.472 308.554C208.805 310.403 207.777 312.113 207.168 313.982C205.226 319.937 207.918 326.576 212.217 331.172C215.945 335.143 220.758 337.963 226.074 339.294C229.952 340.257 233.985 340.395 237.981 340.529C249.049 340.9 260.401 341.231 270.888 337.72C274.202 336.584 277.402 335.149 280.449 333.433C281.411 332.981 282.258 332.322 282.93 331.505C283.73 330.381 283.832 328.923 283.825 327.55C283.801 322.919 282.85 318.311 283.076 313.686C283.201 311.124 283.687 308.563 283.448 306.009C283.117 303.108 281.886 300.379 279.923 298.195C277.96 296.011 275.361 294.48 272.483 293.81C269.508 293.179 266.422 293.523 263.393 293.81C255.531 294.556 247.635 294.905 239.737 294.854C231.668 294.804 223.648 293.588 215.618 293.461C213.243 293.423 213.291 294.146 212.535 296.414C211.839 298.502 211.269 300.629 210.83 302.784Z" fill="#2F2E41"/>
<path d="M233.731 188.432C233.343 190.436 232.924 192.513 231.704 194.161C230.3 196.056 228.011 197.138 226.501 198.952C224.227 201.682 224.097 205.523 224.087 209.057C224.079 212.312 224.146 215.784 225.985 218.486C227.179 220.24 228.995 221.469 230.77 222.65C237.667 227.238 245.12 231.908 253.436 232.06C256.882 232.122 260.576 231.244 262.843 228.682C263.822 227.479 264.592 226.124 265.121 224.671C267.247 219.498 268.536 214.026 268.94 208.458C269.13 205.838 269.112 203.141 268.213 200.669C267.203 197.889 265.16 195.601 263.81 192.965C262.214 189.831 261.631 186.289 262.138 182.817C262.205 182.572 262.184 182.313 262.079 182.081C261.968 181.958 261.83 181.861 261.674 181.799C261.519 181.737 261.352 181.711 261.185 181.724L244.696 180.552C243.16 180.477 241.631 180.304 240.118 180.035C239.229 179.857 236.881 178.611 236.034 178.942C234.465 179.555 234.053 186.77 233.731 188.432Z" fill="#FFB8B8"/>
<path opacity="0.1" d="M233.731 188.432C233.343 190.436 232.924 192.513 231.704 194.161C230.3 196.056 228.011 197.138 226.501 198.952C224.227 201.682 224.097 205.523 224.087 209.057C224.079 212.312 224.146 215.784 225.985 218.486C227.179 220.24 228.995 221.469 230.77 222.65C237.667 227.238 245.12 231.908 253.436 232.06C256.882 232.122 260.576 231.244 262.843 228.682C263.822 227.479 264.592 226.124 265.121 224.671C267.247 219.498 268.536 214.026 268.94 208.458C269.13 205.838 269.112 203.141 268.213 200.669C267.203 197.889 265.16 195.601 263.81 192.965C262.214 189.831 261.631 186.289 262.138 182.817C262.205 182.572 262.184 182.313 262.079 182.081C261.968 181.958 261.83 181.861 261.674 181.799C261.519 181.737 261.352 181.711 261.185 181.724L244.696 180.552C243.16 180.477 241.631 180.304 240.118 180.035C239.229 179.857 236.881 178.611 236.034 178.942C234.465 179.555 234.053 186.77 233.731 188.432Z" fill="black"/>
<path d="M249.5 190.614C262.86 190.614 273.691 179.924 273.691 166.736C273.691 153.549 262.86 142.858 249.5 142.858C236.14 142.858 225.309 153.549 225.309 166.736C225.309 179.924 236.14 190.614 249.5 190.614Z" fill="#FFB8B8"/>
<path d="M237.124 220.217C238.385 221.518 239.721 222.806 241.373 223.568C243.055 224.254 244.862 224.594 246.682 224.566C251.042 224.687 255.77 223.898 258.803 220.804C262.713 216.815 262.585 210.381 265.65 205.728C265.897 205.306 266.234 204.942 266.637 204.662C267.151 204.385 267.732 204.253 268.317 204.28C272.188 204.245 275.56 206.723 278.604 209.084C279.967 210.142 281.364 211.238 282.224 212.725C282.826 213.884 283.238 215.129 283.445 216.415C284.955 223.692 285.444 231.132 285.93 238.545C286.198 242.639 286.466 246.737 286.446 250.84C286.381 264.356 283.198 277.647 280.033 290.797C279.625 292.492 279.067 294.386 277.505 295.198C276.81 295.506 276.062 295.686 275.3 295.729C266.235 296.78 257.15 297.832 248.023 297.971C244.461 298.025 240.901 297.94 237.342 297.715C236.73 297.707 236.122 297.603 235.543 297.406C234.757 297.033 234.082 296.467 233.582 295.762C228.645 289.621 228.353 281.132 228.385 273.293C228.462 254.127 229.156 234.976 230.466 215.841C230.574 214.262 230.598 212.344 229.445 211.101C231.521 214.382 234.409 217.415 237.124 220.217Z" fill="#A9D4EA"/>
<path d="M232 192.646C231.183 194.106 225.159 197.731 223.996 198.941C217.499 205.701 205.64 205.447 199.697 212.688C197.607 215.235 196.521 218.436 195.722 221.618C194.592 226.119 193.988 231.028 195.881 235.271C197.702 239.355 201.537 242.178 204.14 245.825C206.998 249.83 208.283 254.693 209.514 259.439C210.424 262.943 211.34 266.534 210.986 270.134C210.584 274.227 208.577 277.975 207.392 281.918C206.207 285.861 206.003 290.557 208.742 293.655C210.755 295.932 213.912 296.834 216.929 297.342C220.794 297.915 224.692 298.25 228.599 298.344C232.048 298.495 235.85 298.524 238.502 296.341C240.594 294.619 241.504 291.824 241.622 289.138C241.739 286.451 241.173 283.788 240.818 281.122C240.45 278.358 240.309 275.57 240.191 272.785C239.66 260.288 239.588 247.783 239.974 235.27C240.054 232.666 240.152 230.03 239.589 227.485C238.849 224.138 237.016 221.146 235.487 218.071C232.452 211.966 231.016 206.036 231.485 199.251C231.949 192.554 234.907 187.451 232 192.646Z" fill="#8D8D9A"/>
<path d="M265.971 193.154C267.215 194.417 271.444 194.833 273.027 195.646C274.516 196.325 276.07 196.856 277.666 197.231C283.44 198.875 288.933 201.364 293.961 204.613C295.006 205.217 295.93 206.004 296.686 206.937C297.572 208.153 297.893 209.67 298.194 211.138C298.969 214.928 299.748 218.764 299.574 222.627C299.389 226.727 298.137 230.698 296.896 234.615L292.258 249.251C288.796 260.176 285.312 271.209 284.338 282.615C283.799 288.937 284.038 295.3 285.051 301.564C285.153 302.194 285.239 302.916 284.817 303.4C284.512 303.698 284.11 303.88 283.682 303.916C281.443 304.261 279.277 303.134 277.248 302.138C271.049 299.093 264.433 296.956 257.61 295.795C260.276 291.991 262.333 287.805 263.709 283.384C264.491 280.576 265.106 277.726 265.552 274.848L267.71 262.53C268.588 258.028 269.206 253.481 269.561 248.909C269.724 247.194 269.623 245.464 269.26 243.778C268.763 242.174 268.103 240.624 267.29 239.151C263.734 231.85 262.066 223.519 263.465 215.537C264.077 212.043 265.267 208.546 264.771 205.034C264.294 201.659 264.789 199.035 263.912 195.694C260.309 181.977 263.629 190.779 265.971 193.154Z" fill="#8D8D9A"/>
<path d="M199.636 224.231C198.015 227.551 195.305 230.38 194.382 233.952C194.023 235.621 193.869 237.327 193.924 239.032C193.902 241.603 193.888 244.225 194.688 246.672C195.203 248.247 196.04 249.699 196.644 251.243C197.485 253.401 197.859 255.708 197.744 258.016C197.581 261.215 196.48 264.319 196.394 267.521C196.259 272.555 198.618 277.288 200.92 281.782C201.499 280.366 202.385 279.092 203.515 278.049C204.646 277.006 205.993 276.219 207.464 275.744C208.934 275.269 210.492 275.116 212.029 275.298C213.565 275.479 215.043 275.989 216.359 276.793C216.966 276.239 217.031 275.33 217.054 274.515C217.225 268.674 217.389 262.834 217.547 256.993C217.796 247.959 218.033 238.805 215.928 230.011C214.977 226.04 213.498 222.085 210.787 219.005C209.359 217.383 204.513 213.112 202.169 214.928C201.115 215.745 201.362 217.969 201.195 219.095C200.943 220.876 200.417 222.607 199.636 224.231Z" fill="#8D8D9A"/>
<path d="M300.047 214.662C300.814 217.019 300.86 219.537 300.875 222.012C300.906 227.061 300.839 232.11 300.672 237.157C300.587 239.741 300.469 242.361 299.675 244.825C299.152 246.45 298.344 247.974 297.803 249.593C296.183 254.446 297.068 259.71 297.207 264.818C297.305 266.472 297.162 268.13 296.783 269.744C295.928 272.91 293.63 275.469 292.026 278.339C290.502 281.064 289.583 284.118 287.764 286.661C285.945 289.203 282.795 291.217 279.743 290.437C277.43 289.846 275.787 287.825 274.65 285.751C272.169 281.19 271.321 275.936 272.242 270.841C273.383 264.641 277.073 259.141 278.403 252.978C280.231 244.514 277.454 235.781 277.536 227.128C277.499 225.772 277.685 224.419 278.088 223.121C278.786 221.145 280.285 219.567 281.67 217.981C283.4 216 285.008 213.918 286.484 211.746C287.475 210.286 288.822 206.533 290.579 206.221C294.503 205.524 299.074 211.67 300.047 214.662Z" fill="#8D8D9A"/>
<path d="M179.274 299.02C177.104 298.482 174.868 298.247 172.632 298.323C170.282 298.451 167.987 299.072 165.899 300.143C163.812 301.215 161.979 302.712 160.523 304.537C159.067 306.362 158.021 308.472 157.456 310.726C156.89 312.98 156.816 315.328 157.241 317.613C157.783 320.087 158.668 322.476 159.873 324.711C161.634 328.24 163.747 331.76 167.008 334.021C168.916 335.344 171.123 336.169 173.305 336.98L190.48 343.366C193.007 344.306 195.534 345.246 198.085 346.117C210.905 350.49 224.27 353.113 237.809 353.911C241.933 354.154 246.12 354.221 250.143 353.295C251.097 353.075 252.116 352.747 252.669 351.948C252.996 351.385 253.189 350.755 253.233 350.108L254.29 342.805C254.439 341.777 254.582 340.694 254.2 339.726C253.716 338.499 252.502 337.727 251.345 337.071C240.054 330.67 226.87 327.138 217.366 318.353C215.128 316.284 213.256 313.006 210.537 311.601C207.455 310.008 203.824 309.099 200.638 307.63C193.672 304.421 186.823 300.733 179.274 299.02Z" fill="#2F2E41"/>
<path opacity="0.1" d="M196.421 308.865C202.491 310.743 228.122 323.751 232.515 328.292C231.926 328.502 211.947 317.45 211.347 317.273C205.898 315.658 200.418 314.033 195.243 311.671C194.202 311.196 188.479 308.962 188.739 307.665C189.031 306.202 195.343 308.532 196.421 308.865Z" fill="black"/>
<path d="M225.569 346.342C222.765 346.783 219.636 347.173 217.82 349.327C215.518 352.059 216.498 356.131 217.597 359.515C217.76 360.2 218.087 360.835 218.552 361.369C219.301 362.099 220.45 362.206 221.501 362.271C224.057 362.431 226.778 362.556 229.012 361.318C230.024 360.658 230.998 359.944 231.93 359.178C233.578 358.096 235.389 357.278 237.295 356.757C240.801 355.668 244.409 354.934 248.064 354.566C249.505 354.501 250.931 354.253 252.307 353.828C253.655 353.327 254.903 352.333 255.295 350.965C255.812 349.157 254.748 347.313 253.726 345.728C252.455 343.752 251.107 341.673 249.211 340.219C246.444 338.097 245.075 339.726 242.288 341.083C237.013 343.653 231.377 345.426 225.569 346.342Z" fill="#FFB8B8"/>
<path d="M316.825 294.879C320.382 293.999 324.069 293.75 327.715 294.145C330.626 294.461 333.625 295.261 335.751 297.25C338.338 299.671 339.169 303.414 339.239 306.932C339.352 313.939 336.998 320.768 332.577 326.252C331.498 327.639 330.214 328.858 328.769 329.87C327.21 330.833 325.548 331.623 323.814 332.227L285.351 347.201C275.232 351.141 265.078 355.092 254.524 357.689C254.235 357.826 253.922 357.905 253.602 357.922C253.282 357.938 252.961 357.89 252.66 357.783C252.359 357.675 252.083 357.509 251.847 357.294C251.612 357.079 251.423 356.82 251.291 356.532C247.921 351.781 245.094 346.676 242.861 341.311C242.755 341.184 242.682 341.033 242.648 340.871C242.614 340.71 242.619 340.543 242.664 340.385C242.709 340.226 242.792 340.08 242.907 339.96C243.021 339.84 243.163 339.749 243.32 339.694L270.525 324.265C272.474 323.16 274.444 322.039 276.062 320.499C277.238 319.375 278.201 318.052 278.905 316.593C279.469 315.43 279.522 312.687 280.242 311.827C280.947 310.986 283.36 310.919 284.474 310.588C286.045 310.113 287.584 309.539 289.081 308.869C295.167 306.182 300.586 302.277 306.42 299.131C309.692 297.284 313.188 295.856 316.825 294.879Z" fill="#2F2E41"/>
<path opacity="0.1" d="M301.402 306.401C296.728 309.866 290.677 313.051 286.044 316.608C284.463 317.821 258.108 332.447 257.735 334.389C262.057 335.108 289.587 316.098 293.526 314.201C297.464 312.304 300.956 309.629 304.416 306.974C305.298 306.298 309.035 304.263 306.503 303.507C305.078 303.081 302.455 305.709 301.402 306.401Z" fill="black"/>
<path d="M275.763 145.572L254.953 134.813L226.217 139.215L220.271 165.134L235.071 164.572L239.206 155.05V164.415L246.035 164.156L249.999 148.996L252.476 165.134L276.754 164.645L275.763 145.572Z" fill="#2F2E41"/>
<path d="M271.118 198.743H226.338V252.087H271.118V198.743Z" fill="#3F3D56"/>
<path d="M205.08 291.522C206.108 293.037 207.313 294.519 208.964 295.336C210.017 295.811 211.166 296.042 212.324 296.011C213.481 295.981 214.616 295.689 215.642 295.16C217.69 294.075 219.367 292.416 220.46 290.391C222.722 286.449 223.19 281.732 222.908 277.211C222.626 272.689 221.648 268.237 221.215 263.727C220.9 260.449 220.875 257.151 220.849 253.858C220.771 253.165 220.918 252.466 221.269 251.862C221.77 251.187 222.688 251.001 223.5 250.762C228.065 249.424 231.094 245.201 233.266 241.019C234.717 238.226 235.978 235.173 235.698 232.047C235.419 228.921 233.142 225.772 229.979 225.453C227.371 225.19 224.964 226.825 223.083 228.627C218.338 233.2 215.288 239.216 214.424 245.707C214.011 248.885 214.129 252.15 213.253 255.236C211.383 261.825 205.532 265.864 202.616 271.793C199.403 278.326 201.176 285.742 205.08 291.522Z" fill="#FFB8B8"/>
<path d="M291.187 266.351C290.522 267.879 289.553 269.26 288.338 270.412C287.123 271.565 285.686 272.465 284.113 273.061C282.157 273.836 280 273.966 277.963 273.432C276.953 273.156 276.021 272.653 275.239 271.963C274.458 271.273 273.848 270.415 273.458 269.455C273.146 268.488 272.975 267.482 272.95 266.467C272.658 262.024 272.771 257.446 274.406 253.296C275.036 251.696 275.887 250.178 276.384 248.532C276.874 246.632 277.124 244.679 277.13 242.718L277.667 230.595C277.756 229.715 277.694 228.826 277.485 227.966C276.948 226.212 275.288 225.072 273.764 224.026C270.083 221.5 266.446 218.552 264.663 214.492C264.05 213.27 263.83 211.892 264.034 210.543C264.537 208.136 266.998 206.577 269.431 206.052C271.022 205.709 272.668 205.687 274.268 205.988C275.869 206.289 277.391 206.907 278.744 207.804C280.096 208.701 281.25 209.859 282.137 211.208C283.023 212.557 283.624 214.07 283.903 215.654C284.144 217.022 284.14 218.42 284.281 219.801C284.58 222.732 285.523 225.557 286.112 228.445C287.565 235.557 286.812 242.909 288.249 250.02C289.45 255.966 293.978 259.845 291.187 266.351Z" fill="#FFB8B8"/>
<path d="M14.0895 340.495L13.0601 340.476C13.4582 329.178 14.6794 317.924 16.7143 306.799C21.1657 282.982 28.5676 267.34 38.7144 260.308L39.3055 261.139C15.6024 277.566 14.1015 339.868 14.0895 340.495Z" fill="#2F2E41"/>
<path d="M26.9571 340.252L25.9277 340.233C25.9499 339.107 26.5933 312.588 37.1703 305.258L37.7614 306.09C27.6111 313.124 26.9622 339.982 26.9571 340.252Z" fill="#2F2E41"/>
<path d="M45.1617 261.232C48.0043 261.232 50.3088 258.957 50.3088 256.151C50.3088 253.345 48.0043 251.071 45.1617 251.071C42.3191 251.071 40.0146 253.345 40.0146 256.151C40.0146 258.957 42.3191 261.232 45.1617 261.232Z" fill="#8D8D9A"/>
<path d="M42.6129 304.923C45.4555 304.923 47.76 302.648 47.76 299.843C47.76 297.037 45.4555 294.762 42.6129 294.762C39.7702 294.762 37.4658 297.037 37.4658 299.843C37.4658 302.648 39.7702 304.923 42.6129 304.923Z" fill="#8D8D9A"/>
<path d="M24.5578 264.277C25.5251 270.376 23.0039 275.83 23.0039 275.83C23.0039 275.83 18.9144 271.397 17.9471 265.299C16.9798 259.2 19.5009 253.746 19.5009 253.746C19.5009 253.746 23.5904 258.179 24.5578 264.277Z" fill="#2F2E41"/>
<path d="M41.3821 279.088C35.4666 281.091 29.5857 279.591 29.5857 279.591C29.5857 279.591 33.2957 274.844 39.2111 272.841C45.1266 270.838 51.0076 272.338 51.0076 272.338C51.0076 272.338 47.2976 277.085 41.3821 279.088Z" fill="#2F2E41"/>
<path d="M41.5723 317.781C38.895 318.611 36.0438 318.733 33.304 318.134C35.0436 315.947 37.3866 314.304 40.0506 313.402C42.7147 312.5 45.5861 312.378 48.319 313.05C46.5286 315.183 44.2021 316.814 41.5723 317.781Z" fill="#2F2E41"/>
</g>
<defs>
<clipPath id="clip0">
<rect width="525" height="373" fill="white" transform="translate(-13)"/>
</clipPath>
</defs>
</svg>
