<svg width="499" height="345" viewBox="0 0 499 345" fill="none" xmlns="http://www.w3.org/2000/svg">
<g clip-path="url(#clip0)">
<path d="M98.1195 34.559H65.277C62.1195 34.5617 59.0922 35.7554 56.8595 37.8779C54.6268 40.0004 53.3712 42.8784 53.3684 45.8801V79.73C52.9485 79.7062 52.5286 79.6704 52.1148 79.6228C44.3342 78.8446 36.9369 76.0154 30.757 71.4544C24.5771 66.8933 19.8605 60.7817 17.1388 53.8087C14.4171 46.8356 13.7986 39.2784 15.3531 31.989C16.9076 24.6997 20.5732 17.9681 25.9367 12.5533C31.3001 7.13846 38.1482 3.25575 45.7086 1.34288C53.2691 -0.569985 61.2413 -0.436926 68.7265 1.72707C76.2116 3.89106 82.912 7.99992 88.0722 13.5904C93.2324 19.1809 96.6472 26.0306 97.9316 33.3673C98.0005 33.7606 98.0632 34.1598 98.1195 34.559Z" fill="#F2F2F2"/>
<path d="M485.838 33.3672H65.2769C61.7872 33.3708 58.4416 34.6903 55.9741 37.0361C53.5065 39.3819 52.1186 42.5625 52.1147 45.8799V256.809C52.1186 260.127 53.5065 263.307 55.9741 265.653C58.4416 267.999 61.7872 269.318 65.2769 269.322H485.838C489.328 269.318 492.673 267.999 495.141 265.653C497.608 263.307 498.996 260.127 499 256.809V45.8799C498.996 42.5625 497.608 39.3819 495.141 37.0361C492.673 34.6903 489.328 33.3708 485.838 33.3672ZM497.746 256.809C497.744 259.811 496.488 262.689 494.255 264.811C492.023 266.934 488.995 268.127 485.838 268.13H65.2769C62.1194 268.127 59.0921 266.934 56.8594 264.811C54.6267 262.689 53.3711 259.811 53.3683 256.809V45.8799C53.3711 42.8782 54.6267 40.0003 56.8594 37.8777C59.0921 35.7552 62.1194 34.5616 65.2769 34.5589H485.838C488.995 34.5616 492.023 35.7552 494.255 37.8777C496.488 40.0003 497.744 42.8782 497.746 45.8799V256.809Z" fill="#FFFEFC"/>
<path d="M465.155 67.5506H85.9603C85.794 67.5506 85.6346 67.4878 85.5171 67.3761C85.3995 67.2643 85.3335 67.1128 85.3335 66.9547C85.3335 66.7967 85.3995 66.6452 85.5171 66.5334C85.6346 66.4217 85.794 66.3589 85.9603 66.3589H465.155C465.321 66.3589 465.48 66.4217 465.598 66.5334C465.715 66.6452 465.781 66.7967 465.781 66.9547C465.781 67.1128 465.715 67.2643 465.598 67.3761C465.48 67.4878 465.321 67.5506 465.155 67.5506Z" fill="white"/>
<path d="M193.138 243.701C192.971 243.701 192.812 243.638 192.694 243.526C192.577 243.415 192.511 243.263 192.511 243.105V47.0719C192.511 46.9139 192.577 46.7623 192.694 46.6506C192.812 46.5389 192.971 46.4761 193.138 46.4761C193.304 46.4761 193.463 46.5389 193.581 46.6506C193.698 46.7623 193.764 46.9139 193.764 47.0719V243.105C193.764 243.263 193.698 243.415 193.581 243.526C193.463 243.638 193.304 243.701 193.138 243.701Z" fill="white"/>
<path d="M287.779 243.701C287.613 243.701 287.454 243.638 287.336 243.526C287.219 243.415 287.153 243.263 287.153 243.105V47.0719C287.153 46.9139 287.219 46.7623 287.336 46.6506C287.454 46.5389 287.613 46.4761 287.779 46.4761C287.946 46.4761 288.105 46.5389 288.223 46.6506C288.34 46.7623 288.406 46.9139 288.406 47.0719V243.105C288.406 243.263 288.34 243.415 288.223 243.526C288.105 243.638 287.946 243.701 287.779 243.701Z" fill="white"/>
<path d="M382.421 243.701C382.255 243.701 382.096 243.638 381.978 243.526C381.86 243.415 381.794 243.263 381.794 243.105V47.0719C381.794 46.9139 381.86 46.7623 381.978 46.6506C382.096 46.5389 382.255 46.4761 382.421 46.4761C382.587 46.4761 382.747 46.5389 382.864 46.6506C382.982 46.7623 383.048 46.9139 383.048 47.0719V243.105C383.048 243.263 382.982 243.415 382.864 243.526C382.747 243.638 382.587 243.701 382.421 243.701Z" fill="white"/>
<path d="M132.288 129.053H109.386C108.638 129.052 107.921 128.769 107.393 128.267C106.864 127.764 106.567 127.082 106.566 126.371V100.679C106.567 99.968 106.864 99.2864 107.393 98.7838C107.921 98.2811 108.638 97.9983 109.386 97.9976H132.288C133.036 97.9983 133.753 98.2811 134.282 98.7838C134.81 99.2864 135.108 99.968 135.109 100.679V126.371C135.108 127.082 134.81 127.764 134.282 128.267C133.753 128.769 133.036 129.052 132.288 129.053Z" fill="#8D8D9A"/>
<path d="M164.88 202.341H141.978C141.23 202.341 140.513 202.058 139.984 201.555C139.456 201.052 139.158 200.371 139.157 199.66V173.967C139.158 173.257 139.456 172.575 139.984 172.072C140.513 171.57 141.23 171.287 141.978 171.286H164.88C165.628 171.287 166.345 171.57 166.873 172.072C167.402 172.575 167.7 173.257 167.7 173.967V199.66C167.7 200.371 167.402 201.052 166.873 201.555C166.345 202.058 165.628 202.341 164.88 202.341Z" fill="#8D8D9A"/>
<path d="M238.839 144.544H215.937C215.189 144.544 214.472 144.261 213.943 143.758C213.414 143.256 213.117 142.574 213.116 141.863V116.171C213.117 115.46 213.414 114.778 213.943 114.275C214.472 113.773 215.189 113.49 215.937 113.489H238.839C239.586 113.49 240.303 113.773 240.832 114.275C241.361 114.778 241.658 115.46 241.659 116.171V141.863C241.658 142.574 241.361 143.256 240.832 143.758C240.303 144.261 239.586 144.544 238.839 144.544Z" fill="#8D8D9A"/>
<path d="M334.734 116.54H311.832C311.084 116.539 310.367 116.256 309.839 115.753C309.31 115.251 309.013 114.569 309.012 113.858V88.1657C309.013 87.4548 309.31 86.7733 309.839 86.2706C310.367 85.7679 311.084 85.4852 311.832 85.4844H334.734C335.482 85.4852 336.199 85.7679 336.728 86.2706C337.256 86.7733 337.554 87.4548 337.555 88.1657V113.858C337.554 114.569 337.256 115.251 336.728 115.753C336.199 116.256 335.482 116.539 334.734 116.54Z" fill="#8D8D9A"/>
<path d="M423.108 116.54H400.206C399.458 116.539 398.741 116.256 398.213 115.753C397.684 115.251 397.387 114.569 397.386 113.858V88.1657C397.387 87.4548 397.684 86.7733 398.213 86.2706C398.741 85.7679 399.458 85.4852 400.206 85.4844H423.108C423.856 85.4852 424.573 85.7679 425.102 86.2706C425.63 86.7733 425.928 87.4548 425.929 88.1657V113.858C425.928 114.569 425.63 115.251 425.102 115.753C424.573 116.256 423.856 116.539 423.108 116.54Z" fill="#8D8D9A"/>
<path d="M463.848 123.69H440.946C440.198 123.689 439.481 123.406 438.952 122.904C438.424 122.401 438.126 121.72 438.125 121.009V95.3161C438.126 94.6052 438.424 93.9236 438.952 93.421C439.481 92.9183 440.198 92.6356 440.946 92.6348H463.848C464.596 92.6356 465.313 92.9183 465.841 93.421C466.37 93.9236 466.668 94.6052 466.669 95.3161V121.009C466.668 121.72 466.37 122.401 465.841 122.904C465.313 123.406 464.596 123.689 463.848 123.69Z" fill="#E6E6E6"/>
<path d="M445.672 169.57H422.77C422.022 169.569 421.305 169.286 420.776 168.784C420.247 168.281 419.95 167.599 419.949 166.889V141.196C419.95 140.485 420.247 139.804 420.776 139.301C421.305 138.798 422.022 138.515 422.77 138.515H445.672C446.42 138.515 447.136 138.798 447.665 139.301C448.194 139.804 448.491 140.485 448.492 141.196V166.889C448.491 167.599 448.194 168.281 447.665 168.784C447.136 169.286 446.42 169.569 445.672 169.57Z" fill="#E6E6E6"/>
<path d="M367.953 160.037H345.051C344.303 160.036 343.586 159.753 343.057 159.25C342.529 158.748 342.231 158.066 342.23 157.355V131.663C342.231 130.952 342.529 130.27 343.057 129.768C343.586 129.265 344.303 128.982 345.051 128.981H367.953C368.701 128.982 369.418 129.265 369.946 129.768C370.475 130.27 370.773 130.952 370.773 131.663V157.355C370.773 158.066 370.475 158.748 369.946 159.25C369.418 159.753 368.701 160.036 367.953 160.037Z" fill="#A9D4EA"/>
<path d="M323.452 169.57H300.55C299.802 169.569 299.085 169.286 298.557 168.784C298.028 168.281 297.731 167.599 297.73 166.889V141.196C297.731 140.485 298.028 139.804 298.557 139.301C299.085 138.798 299.802 138.515 300.55 138.515H323.452C324.2 138.515 324.917 138.798 325.446 139.301C325.974 139.804 326.272 140.485 326.273 141.196V166.889C326.272 167.599 325.974 168.281 325.446 168.784C324.917 169.286 324.2 169.569 323.452 169.57Z" fill="#E6E6E6"/>
<path d="M227.557 210.087H204.655C203.907 210.087 203.19 209.804 202.661 209.301C202.132 208.799 201.835 208.117 201.834 207.406V181.714C201.835 181.003 202.132 180.321 202.661 179.818C203.19 179.316 203.907 179.033 204.655 179.032H227.557C228.305 179.033 229.021 179.316 229.55 179.818C230.079 180.321 230.376 181.003 230.377 181.714V207.406C230.376 208.117 230.079 208.799 229.55 209.301C229.021 209.804 228.305 210.087 227.557 210.087Z" fill="#E6E6E6"/>
<path d="M111.605 176.125H88.7028C87.955 176.124 87.2381 175.841 86.7093 175.338C86.1806 174.836 85.8832 174.154 85.8823 173.443V147.751C85.8832 147.04 86.1806 146.358 86.7093 145.856C87.2381 145.353 87.955 145.07 88.7028 145.069H111.605C112.353 145.07 113.07 145.353 113.598 145.856C114.127 146.358 114.425 147.04 114.425 147.751V173.443C114.425 174.154 114.127 174.836 113.598 175.338C113.07 175.841 112.353 176.124 111.605 176.125Z" fill="#A9D4EA"/>
<path d="M176.162 129.053H153.26C152.512 129.052 151.795 128.769 151.266 128.267C150.738 127.764 150.44 127.082 150.439 126.371V100.679C150.44 99.968 150.738 99.2864 151.266 98.7838C151.795 98.2811 152.512 97.9983 153.26 97.9976H176.162C176.91 97.9983 177.627 98.2811 178.155 98.7838C178.684 99.2864 178.982 99.968 178.982 100.679V126.371C178.982 127.082 178.684 127.764 178.155 128.267C177.627 128.769 176.91 129.052 176.162 129.053Z" fill="#E6E6E6"/>
<path d="M157.412 57.797H121.686C121.021 57.797 120.383 57.5459 119.913 57.099C119.443 56.652 119.179 56.0458 119.179 55.4137C119.179 54.7815 119.443 54.1753 119.913 53.7283C120.383 53.2814 121.021 53.0303 121.686 53.0303H157.412C158.077 53.0303 158.714 53.2814 159.185 53.7283C159.655 54.1753 159.919 54.7815 159.919 55.4137C159.919 56.0458 159.655 56.652 159.185 57.099C158.714 57.5459 158.077 57.797 157.412 57.797Z" fill="#CCCCCC"/>
<path d="M258.321 57.797H222.595C221.931 57.797 221.293 57.5459 220.823 57.099C220.353 56.652 220.088 56.0458 220.088 55.4137C220.088 54.7815 220.353 54.1753 220.823 53.7283C221.293 53.2814 221.931 53.0303 222.595 53.0303H258.321C258.986 53.0303 259.624 53.2814 260.094 53.7283C260.564 54.1753 260.828 54.7815 260.828 55.4137C260.828 56.0458 260.564 56.652 260.094 57.099C259.624 57.5459 258.986 57.797 258.321 57.797Z" fill="#CCCCCC"/>
<path d="M352.963 57.797H317.238C316.573 57.797 315.935 57.5459 315.465 57.099C314.995 56.652 314.73 56.0458 314.73 55.4137C314.73 54.7815 314.995 54.1753 315.465 53.7283C315.935 53.2814 316.573 53.0303 317.238 53.0303H352.963C353.628 53.0303 354.266 53.2814 354.736 53.7283C355.206 54.1753 355.47 54.7815 355.47 55.4137C355.47 56.0458 355.206 56.652 354.736 57.099C354.266 57.5459 353.628 57.797 352.963 57.797Z" fill="#CCCCCC"/>
<path d="M441.337 57.797H405.612C404.947 57.797 404.309 57.5459 403.839 57.099C403.369 56.652 403.104 56.0458 403.104 55.4137C403.104 54.7815 403.369 54.1753 403.839 53.7283C404.309 53.2814 404.947 53.0303 405.612 53.0303H441.337C442.002 53.0303 442.64 53.2814 443.11 53.7283C443.58 54.1753 443.844 54.7815 443.844 55.4137C443.844 56.0458 443.58 56.652 443.11 57.099C442.64 57.5459 442.002 57.797 441.337 57.797Z" fill="#CCCCCC"/>
<path d="M77.3943 232.315C76.4772 232.229 75.5911 231.954 74.7982 231.508C74.0052 231.062 73.3249 230.456 72.805 229.732C72.2851 229.009 71.9384 228.186 71.7891 227.322C71.6399 226.458 71.6919 225.573 71.9413 224.729L55.8755 210.512L64.3699 208.463L80.1681 220.645C81.6304 221.137 82.8519 222.122 83.6012 223.413C84.3505 224.705 84.5756 226.213 84.2337 227.651C83.8918 229.09 83.0067 230.359 81.7461 231.218C80.4856 232.078 78.9372 232.468 77.3943 232.315Z" fill="#FFB8B8"/>
<path d="M99.5784 337.399H107.263L110.918 309.223H99.5771L99.5784 337.399Z" fill="#FFB8B8"/>
<path d="M122.082 344.181L97.9322 344.182L97.9318 335.312L112.751 335.311C115.226 335.311 117.599 336.246 119.349 337.909C121.099 339.572 122.082 341.829 122.082 344.181L122.082 344.181Z" fill="#2F2E41"/>
<path d="M46.8928 332.125L54.3188 334.004L65.4759 307.67L54.5168 304.897L46.8928 332.125Z" fill="#FFB8B8"/>
<path d="M66.8042 344.184L43.467 338.278L45.867 329.706L60.1876 333.33C62.579 333.935 64.6195 335.419 65.8604 337.454C67.1012 339.49 67.4407 341.91 66.8042 344.184Z" fill="#2F2E41"/>
<path d="M109.329 332.064H97.6039C96.8633 332.067 96.1485 331.806 95.6003 331.332C95.0521 330.859 94.7101 330.208 94.6417 329.507L87.5239 259.238C87.4717 258.722 87.2327 258.24 86.8479 257.874C86.463 257.507 85.9561 257.279 85.414 257.229C84.8719 257.179 84.3283 257.309 83.8761 257.598C83.424 257.886 83.0914 258.316 82.9353 258.812L62.2687 324.473C62.0501 325.171 61.5565 325.762 60.8909 326.122C60.2253 326.483 59.439 326.585 58.6961 326.407L47.7884 323.815C47.4077 323.724 47.0496 323.563 46.7346 323.341C46.4197 323.118 46.1542 322.838 45.9534 322.518C45.7525 322.197 45.6204 321.842 45.5645 321.473C45.5086 321.104 45.5301 320.728 45.6278 320.366C45.8059 319.705 63.4346 254.211 63.5886 253.538C67.5828 225.552 72.3615 218.053 74.9287 214.024C75.1412 213.691 75.3365 213.384 75.5123 213.095C75.7323 212.732 77.087 209.135 77.9464 206.8C78.058 206.42 78.2512 206.066 78.5139 205.761C78.7766 205.455 79.103 205.205 79.4726 205.026C90.2597 199.781 102.881 203.411 106.492 204.649C107.091 204.85 107.605 205.229 107.957 205.731C118.791 221.265 113.474 311.488 112.299 329.417C112.25 330.134 111.916 330.807 111.364 331.298C110.813 331.79 110.085 332.064 109.329 332.064Z" fill="#2F2E41"/>
<path d="M79.0708 154.077C87.5727 154.077 94.4649 147.525 94.4649 139.442C94.4649 131.36 87.5727 124.808 79.0708 124.808C70.5689 124.808 63.6768 131.36 63.6768 139.442C63.6768 147.525 70.5689 154.077 79.0708 154.077Z" fill="#FFB8B8"/>
<path d="M77.4395 209.641L77.3289 209.539C77.1214 209.348 56.6107 190.246 59.2651 172.582C60.4004 165.027 66.8304 160.2 77.8599 158.621C81.9119 158.049 86.0449 158.887 89.4993 160.98C92.9538 163.073 95.4974 166.281 96.6628 170.014L107.568 205.458L77.4395 209.641Z" fill="#CCCCCC"/>
<path d="M66.942 223.228L52.3268 209.422C51.3275 208.472 50.6019 207.294 50.22 206.001C49.838 204.708 49.8124 203.343 50.1458 202.038L57.2211 174.678C57.433 173.858 57.8197 173.088 58.3572 172.416C58.8947 171.744 59.5716 171.184 60.346 170.77C61.1203 170.357 61.9757 170.099 62.8591 170.013C63.7425 169.926 64.6352 170.013 65.4818 170.268C67.0956 170.763 68.4436 171.835 69.2402 173.258C70.0368 174.681 70.2195 176.343 69.7496 177.891L62.3007 201.961L74.3461 214.258L66.942 223.228Z" fill="#CCCCCC"/>
<path d="M145.333 176.109C144.946 176.905 144.381 177.61 143.677 178.175C142.973 178.74 142.147 179.151 141.258 179.38C140.368 179.609 139.437 179.65 138.529 179.499C137.622 179.349 136.76 179.011 136.004 178.51L116.493 188.124L117.356 179.957L134.652 169.781C135.622 168.63 137.003 167.857 138.532 167.609C140.061 167.361 141.633 167.655 142.949 168.435C144.266 169.215 145.236 170.427 145.675 171.842C146.114 173.256 145.992 174.775 145.333 176.109H145.333Z" fill="#FFB8B8"/>
<path d="M133.873 182.188L114.853 190.002C113.587 190.518 112.203 190.716 110.833 190.576C109.464 190.436 108.155 189.964 107.033 189.204L82.8469 172.73C82.125 172.238 81.517 171.611 81.0604 170.887C80.6039 170.163 80.3085 169.357 80.1925 168.52C80.0766 167.683 80.1425 166.832 80.3863 166.021C80.6301 165.209 81.0466 164.453 81.6099 163.801C82.6924 162.56 84.2405 161.768 85.9262 161.594C87.612 161.42 89.3029 161.876 90.6408 162.866L111.38 178.383L127.864 172.321L133.873 182.188Z" fill="#CCCCCC"/>
<path d="M81.6228 144.131C83.5219 141.869 87.0699 141.748 89.6786 140.256C93.0956 138.301 94.5083 133.933 93.4071 130.289C92.306 126.646 89.0585 123.806 85.3353 122.448C81.6121 121.09 77.4698 121.073 73.5422 121.73C67.6943 122.707 61.9369 125.302 58.3703 129.815C54.8037 134.327 53.8961 140.937 57.1284 145.671C58.614 147.848 60.9073 149.644 61.5004 152.176C62.279 155.501 59.826 158.707 57.1981 161.022C54.2042 163.66 50.7693 165.869 48.1464 168.842C45.5234 171.815 43.7743 175.876 44.9712 179.586C45.974 182.694 48.8922 184.984 52.0921 186.131C55.2921 187.277 58.7773 187.443 62.1964 187.507C65.5165 187.568 69.043 187.492 71.8399 185.79C74.834 183.968 76.4327 180.512 76.5508 177.134C76.6689 173.756 75.4816 170.447 73.8904 167.425C72.942 165.624 71.8392 163.878 71.209 161.955C70.5788 160.032 70.4696 157.85 71.4788 156.078C72.5398 154.217 74.6861 153.094 76.8716 152.685C76.9852 152.664 77.1053 152.645 77.231 152.628C77.8528 152.552 78.4518 152.356 78.9918 152.053C79.5318 151.75 80.0015 151.346 80.3725 150.865C80.7436 150.385 81.0083 149.838 81.1506 149.257C81.2929 148.677 81.3099 148.075 81.2005 147.488C80.9515 146.168 80.973 144.905 81.6228 144.131Z" fill="#2F2E41"/>
<path d="M286.872 338.023H279.188L275.533 309.847L286.873 309.847L286.872 338.023Z" fill="#A0616A"/>
<path d="M273.7 335.936H288.519V344.806H264.369C264.369 343.641 264.61 342.488 265.079 341.411C265.548 340.335 266.235 339.357 267.102 338.534C267.968 337.71 268.997 337.057 270.129 336.611C271.261 336.165 272.474 335.936 273.7 335.936Z" fill="#2F2E41"/>
<path d="M342.627 329.748L335.637 332.783L319.997 308.598L330.313 304.119L342.627 329.748Z" fill="#A0616A"/>
<path d="M329.732 333.053L343.212 327.199L347.089 335.268L325.122 344.806C324.613 343.747 324.328 342.602 324.284 341.438C324.24 340.274 324.438 339.113 324.866 338.022C325.295 336.93 325.945 335.93 326.779 335.077C327.614 334.224 328.618 333.536 329.732 333.053Z" fill="#2F2E41"/>
<path d="M320.249 243.02C320.985 242.493 321.591 241.819 322.024 241.046C322.457 240.272 322.706 239.418 322.753 238.543C322.801 237.669 322.647 236.795 322.301 235.983C321.955 235.171 321.426 234.441 320.751 233.844L329.784 214.36L318.309 216.209L311.49 234.428C310.512 235.572 310.008 237.018 310.075 238.491C310.143 239.965 310.776 241.363 311.856 242.422C312.935 243.481 314.386 244.127 315.933 244.237C317.48 244.347 319.016 243.914 320.249 243.02Z" fill="#A0616A"/>
<path d="M286.382 330.594H279.042C278.33 330.591 277.645 330.334 277.124 329.873C276.602 329.412 276.283 328.781 276.229 328.107L272.225 226.48C272.196 226.091 272.256 225.7 272.401 225.335C272.547 224.969 272.775 224.639 273.069 224.366C273.363 224.094 273.716 223.885 274.104 223.756C274.491 223.627 274.904 223.579 275.312 223.617L317.766 227.903C318.455 227.967 319.094 228.269 319.563 228.752C320.033 229.234 320.299 229.864 320.313 230.521L321.202 275.35C321.207 275.593 321.257 275.834 321.349 276.061L338.764 318.993C338.898 319.325 338.962 319.679 338.951 320.034C338.941 320.389 338.856 320.739 338.702 321.063C338.548 321.387 338.327 321.678 338.053 321.92C337.78 322.163 337.458 322.351 337.107 322.473L329.668 325.079C329.022 325.305 328.311 325.299 327.67 325.061C327.028 324.824 326.5 324.372 326.185 323.79L304.792 284.244C304.675 284.029 304.59 283.8 304.539 283.563L300.884 266.823C300.778 266.338 300.494 265.905 300.082 265.6C299.67 265.296 299.158 265.142 298.637 265.164C298.116 265.186 297.621 265.385 297.239 265.723C296.858 266.061 296.616 266.517 296.557 267.01L289.185 328.217C289.106 328.871 288.777 329.475 288.26 329.913C287.743 330.351 287.075 330.594 286.382 330.594Z" fill="#2F2E41"/>
<path d="M290.038 147.018C298.54 147.018 305.432 140.466 305.432 132.384C305.432 124.301 298.54 117.749 290.038 117.749C281.536 117.749 274.644 124.301 274.644 132.384C274.644 140.466 281.536 147.018 290.038 147.018Z" fill="#A0616A"/>
<path d="M300.595 235.773C290.155 235.663 279.965 232.729 271.216 227.313L271.067 227.214L271.082 227.042L276.971 161.847C277.174 159.635 278.212 157.568 279.894 156.028C281.576 154.487 283.788 153.578 286.121 153.468C293.752 153.135 304.003 153.555 309.49 157.441C317.783 163.312 321.78 172.154 320.456 181.699C317.711 201.492 320.821 228.192 321.184 231.171L321.21 231.386L321.004 231.476C314.611 234.304 307.646 235.77 300.595 235.773Z" fill="#8D8D9A"/>
<path d="M321.113 231.282C320.679 231.281 320.25 231.195 319.853 231.028C319.456 230.862 319.1 230.619 318.806 230.315L315.439 226.823C315.075 226.443 314.82 225.981 314.698 225.481C314.577 224.98 314.592 224.459 314.744 223.966L322.422 199.26L310.739 175.936C310.194 174.844 310.06 173.607 310.361 172.433C310.626 171.402 311.213 170.472 312.046 169.765C312.879 169.058 313.917 168.607 315.024 168.473C316.132 168.339 317.256 168.526 318.249 169.012C319.241 169.497 320.056 170.257 320.585 171.191L336.439 195.646C337.083 196.638 337.461 197.765 337.54 198.929C337.619 200.092 337.396 201.256 336.891 202.318L323.973 229.528C323.76 229.977 323.433 230.37 323.021 230.669C322.609 230.969 322.125 231.166 321.612 231.244C321.447 231.269 321.28 231.281 321.113 231.282Z" fill="#8D8D9A"/>
<path d="M212.606 184.088C213.345 184.611 214.196 184.973 215.098 185.149C216.001 185.326 216.933 185.312 217.83 185.109C218.726 184.905 219.564 184.518 220.286 183.973C221.008 183.428 221.595 182.74 222.006 181.956L244.218 184.695L239.113 174.751L218.803 173.675C217.373 173.105 215.772 173.054 214.304 173.531C212.836 174.008 211.603 174.981 210.839 176.265C210.076 177.548 209.833 179.053 210.159 180.495C210.484 181.937 211.355 183.216 212.606 184.088V184.088Z" fill="#A0616A"/>
<path d="M261.564 189.519C261.177 189.519 260.79 189.493 260.407 189.443L225.464 184.836C224.893 184.761 224.351 184.553 223.886 184.229C223.421 183.905 223.048 183.477 222.8 182.982C222.72 182.822 222.654 182.657 222.601 182.488H222.601C222.466 182.048 222.428 181.586 222.49 181.132C222.552 180.677 222.712 180.24 222.961 179.847L225.853 175.29C226.164 174.802 226.601 174.399 227.123 174.119C227.645 173.839 228.234 173.691 228.834 173.689H228.838L259.297 173.722L282.045 154.347C283.103 153.448 284.454 152.922 285.872 152.858C287.117 152.803 288.35 153.108 289.409 153.733C290.468 154.358 291.303 155.274 291.803 156.359C292.303 157.444 292.446 158.647 292.212 159.811C291.979 160.975 291.379 162.044 290.493 162.877L267.795 186.877C267.009 187.708 266.049 188.373 264.975 188.828C263.901 189.284 262.739 189.519 261.564 189.519Z" fill="#8D8D9A"/>
<path d="M291.788 145.403C293.194 142.308 294.385 138.186 291.687 135.998C290.121 134.728 287.867 134.726 285.817 134.568C280.04 134.123 274.093 131.596 271.269 126.784C268.445 121.972 270.022 114.817 275.349 112.646C278.94 111.182 283.057 112.179 286.816 113.192L298.101 116.235C301.454 117.139 304.975 118.136 307.389 120.526C311.239 124.338 310.951 130.781 307.893 135.194C304.836 139.607 300.23 144.21 294.958 145.885L291.788 145.403Z" fill="#2F2E41"/>
<path d="M447.485 345H-15.2538C-15.3519 345 -15.4492 344.982 -15.54 344.947C-15.6308 344.911 -15.7133 344.859 -15.7828 344.793C-15.8524 344.727 -15.9075 344.649 -15.9452 344.563C-15.9828 344.476 -16.0022 344.384 -16.0022 344.291C-16.0022 344.197 -15.9828 344.105 -15.9452 344.019C-15.9075 343.932 -15.8524 343.854 -15.7828 343.788C-15.7133 343.722 -15.6308 343.67 -15.54 343.634C-15.4492 343.599 -15.3519 343.581 -15.2538 343.581H447.485C447.583 343.581 447.68 343.599 447.771 343.634C447.862 343.67 447.944 343.722 448.014 343.788C448.084 343.854 448.139 343.932 448.176 344.019C448.214 344.105 448.233 344.197 448.233 344.291C448.233 344.384 448.214 344.476 448.176 344.563C448.139 344.649 448.084 344.727 448.014 344.793C447.944 344.859 447.862 344.911 447.771 344.947C447.68 344.982 447.583 345 447.485 345Z" fill="#3F3D56"/>
</g>
<defs>
<clipPath id="clip0">
<rect width="515" height="345" fill="white" transform="translate(-16)"/>
</clipPath>
</defs>
</svg>
