<svg width="504" height="309" viewBox="0 0 504 309" fill="none" xmlns="http://www.w3.org/2000/svg">
<path d="M211.429 290.851C307.401 290.851 385.201 225.742 385.201 145.425C385.201 65.1092 307.401 0 211.429 0C115.457 0 37.6562 65.1092 37.6562 145.425C37.6562 225.742 115.457 290.851 211.429 290.851Z" fill="#FFFEFC"/>
<path d="M60.95 311C99.03 311 129.9 306.866 129.9 301.768C129.9 296.669 99.03 292.535 60.95 292.535C22.8699 292.535 -8 296.669 -8 301.768C-8 306.866 22.8699 311 60.95 311Z" fill="#FFFEFC"/>
<path d="M397.314 301.615C456.235 301.615 504 295.22 504 287.33C504 279.441 456.235 273.045 397.314 273.045C338.393 273.045 290.628 279.441 290.628 287.33C290.628 295.22 338.393 301.615 397.314 301.615Z" fill="#FFFEFC"/>
<path d="M373.611 150.02C373.611 150.02 374.519 152.554 369.372 154.834C364.225 157.115 362.711 165.729 368.766 168.263C374.822 170.797 376.638 174.091 373.611 176.371C370.583 178.651 365.133 184.732 372.399 186.253C379.666 187.773 380.574 190.813 378.455 192.08C376.335 193.347 383.299 189.8 383.299 189.8C383.299 189.8 384.51 195.881 390.868 194.361C397.226 192.84 415.089 163.956 406.006 159.902C396.923 155.848 373.611 150.02 373.611 150.02Z" fill="#2F2E41"/>
<path d="M384.584 174.486C384.584 174.486 387.724 183.685 382.228 184.342C378.818 184.787 375.586 185.914 372.807 187.627L383.014 198.797H401.857L413.634 188.941C413.634 188.941 397.931 179.085 401.072 173.172C404.212 167.258 384.584 174.486 384.584 174.486Z" fill="#FFB9B9"/>
<path opacity="0.1" d="M384.584 174.486C384.584 174.486 387.724 183.685 382.228 184.342C378.818 184.787 375.586 185.914 372.807 187.627L383.014 198.797H401.857L413.634 188.941C413.634 188.941 397.931 179.085 401.072 173.172C404.212 167.258 384.584 174.486 384.584 174.486Z" fill="black"/>
<path d="M389.295 288.815L407.353 294.072L419.915 294.729L419.13 285.53L393.22 279.117L389.295 288.815Z" fill="#FFB9B9"/>
<path d="M412.456 286.844C412.456 286.844 412.456 296.043 414.026 296.043C415.597 296.043 436.796 294.072 443.077 296.043C449.358 298.014 458.78 290.786 454.069 286.844C449.358 282.901 441.674 276.988 436.879 278.302C432.085 279.616 412.456 282.901 412.456 282.901V286.844Z" fill="#A9D4EA"/>
<path d="M354.749 278.302C354.749 278.302 345.327 294.072 351.608 295.386C357.89 296.7 364.956 294.729 365.741 294.072C366.526 293.415 377.518 290.786 379.088 292.101C380.659 293.415 380.659 286.844 380.659 286.844L354.749 278.302Z" fill="#A9D4EA"/>
<path d="M362.6 256.619C362.6 256.619 347.682 273.703 358.674 278.302C369.666 282.902 422.271 282.902 426.197 278.302C430.122 273.703 431.693 259.247 426.197 257.933C420.701 256.619 362.6 256.619 362.6 256.619Z" fill="#2F2E41"/>
<path opacity="0.2" d="M362.6 256.619C362.6 256.619 347.682 273.703 358.674 278.302C369.666 282.902 422.271 282.902 426.197 278.302C430.122 273.703 431.693 259.247 426.197 257.933C420.701 256.619 362.6 256.619 362.6 256.619Z" fill="black"/>
<path d="M390.865 179.085C400.838 179.085 408.923 172.319 408.923 163.973C408.923 155.626 400.838 148.86 390.865 148.86C380.892 148.86 372.807 155.626 372.807 163.973C372.807 172.319 380.892 179.085 390.865 179.085Z" fill="#FFB9B9"/>
<path d="M362.6 187.627L378.302 184.999C378.302 184.999 382.228 195.512 394.79 193.541C407.353 191.57 410.493 184.999 410.493 184.999C410.493 184.999 419.915 188.284 420.7 188.284C421.485 188.284 431.692 191.57 431.692 193.541C431.692 195.512 419.915 215.224 419.915 215.224L421.485 250.705L363.385 249.391L367.31 214.567L362.6 187.627Z" fill="#8D8D9A"/>
<path d="M353.963 204.711C353.963 204.711 349.252 239.535 352.393 242.164C355.534 244.792 368.096 252.02 368.096 252.02V244.135L361.815 234.279L368.096 211.282L353.963 204.711Z" fill="#FFB9B9"/>
<path d="M435.225 203.725C435.225 203.725 432.477 239.535 432.477 240.849C432.477 242.163 425.411 246.763 423.056 246.763C420.7 246.763 419.13 243.477 419.13 243.477L424.626 238.221L420.7 211.281L435.225 203.725Z" fill="#FFB9B9"/>
<path d="M427.766 253.991C427.766 253.991 463.098 237.564 463.883 253.991C464.668 270.417 445.825 276.988 445.825 276.988C445.825 276.988 397.146 289.204 395.183 284.738C393.22 280.273 389.294 273.046 392.435 272.388C395.576 271.731 399.501 270.417 401.072 271.731C402.642 273.046 422.27 261.875 422.27 261.875L427.766 253.991Z" fill="#2F2E41"/>
<path opacity="0.2" d="M444.255 252.02C444.255 252.02 437.188 254.648 434.833 256.619C432.477 258.59 422.271 261.876 422.271 261.876" stroke="black" stroke-width="2" stroke-miterlimit="10"/>
<path d="M367.311 188.941L362.6 187.627C362.6 187.627 345.327 202.739 350.823 206.682C356.319 210.624 359.459 211.938 361.03 213.252C362.6 214.567 370.451 215.224 370.451 215.224L367.311 188.941Z" fill="#8D8D9A"/>
<path d="M424.626 192.227L431.692 193.541C431.692 193.541 437.188 203.397 438.758 204.711C440.329 206.025 436.403 205.368 434.047 207.996C431.692 210.624 429.337 215.224 424.626 215.224C419.915 215.224 413.634 208.653 413.634 208.653L424.626 192.227Z" fill="#8D8D9A"/>
<path d="M364.17 259.904C364.17 259.904 334.335 242.163 324.128 255.305C313.921 268.446 368.096 286.187 375.947 288.815C383.799 291.443 390.865 294.071 390.865 294.071C390.865 294.071 397.931 279.616 397.931 276.988C397.931 274.359 392.435 274.359 390.865 274.359C389.295 274.359 382.228 273.045 380.658 271.074C379.088 269.103 364.17 259.904 364.17 259.904Z" fill="#2F2E41"/>
<path opacity="0.2" d="M347.682 255.305C347.682 255.305 355.533 260.561 362.599 261.875C369.666 263.189 372.021 266.475 372.021 266.475" stroke="black" stroke-width="2" stroke-miterlimit="10"/>
<path d="M358.754 230.6L359.381 258.42C359.402 259.339 359.856 260.214 360.644 260.854C361.432 261.494 362.49 261.847 363.588 261.837L425.452 261.255C426.506 261.245 427.517 260.901 428.279 260.292C429.042 259.683 429.5 258.854 429.56 257.973L431.438 230.735C431.471 230.261 431.387 229.787 431.193 229.341C430.999 228.896 430.699 228.488 430.31 228.143C429.921 227.798 429.452 227.524 428.931 227.336C428.411 227.148 427.85 227.051 427.283 227.051H362.915C362.361 227.051 361.814 227.144 361.304 227.323C360.794 227.502 360.332 227.764 359.944 228.095C359.557 228.425 359.252 228.817 359.048 229.247C358.843 229.677 358.743 230.137 358.754 230.6Z" fill="#A9D4EA"/>
<path d="M391.83 144.989C391.83 144.989 392.837 147.796 387.135 150.322C381.433 152.848 379.756 162.391 386.464 165.198C393.172 168.005 395.184 171.654 391.83 174.18C388.476 176.707 382.439 183.443 390.489 185.127C398.538 186.811 399.545 190.18 397.197 191.583C394.849 192.986 402.563 189.057 402.563 189.057C402.563 189.057 403.905 195.793 410.948 194.109C417.992 192.425 425.019 161.812 417.168 153.927C409.867 146.595 391.83 144.989 391.83 144.989Z" fill="#2F2E41"/>
<path d="M389.688 142.099C389.689 137.987 404.39 140.942 410.693 146.683C415.058 150.659 421.687 156.641 416.132 160.858C410.577 165.074 425.654 170.602 429.698 172.277C433.741 173.953 441.725 179.078 434.517 182.516C427.308 185.954 427.424 189.425 430.137 190.246C432.85 191.068 424.155 189.025 424.155 189.025C424.155 189.025 425.034 195.814 417.708 195.782C410.383 195.749 389.368 162.059 394.388 152.695C399.056 143.988 389.688 142.099 389.688 142.099Z" fill="#2F2E41"/>
<path d="M392.871 141.198C373.212 140.207 371.239 152.591 371.239 152.591C371.375 159.758 384.975 156.266 388.752 157.335C393.309 154.591 402.092 149.4 408.374 145.696C403.814 143.009 398.441 141.45 392.871 141.198Z" fill="#2F2E41"/>
<path d="M387.271 220.223C387.271 220.223 369.636 151.059 259.26 100.885" stroke="#3F3D56" stroke-width="2" stroke-miterlimit="10"/>
<path d="M263.807 99.377L264.028 100.135L259.564 101.041L260.97 104.702L260.082 104.94L258.37 100.481L263.807 99.377Z" fill="#3F3D56"/>
<path d="M23.9004 290.894C23.9004 299.654 17.678 302.713 10.0015 302.713C9.82366 302.713 9.64611 302.711 9.46884 302.708C9.11317 302.702 8.76088 302.688 8.41284 302.668C1.48497 302.257 -3.89746 299.041 -3.89746 290.894C-3.89746 282.463 8.97683 271.824 9.9439 271.037L9.94559 271.036C9.98286 271.005 10.0015 270.99 10.0015 270.99C10.0015 270.99 23.9004 282.134 23.9004 290.894Z" fill="#8D8D9A"/>
<path d="M9.49472 301.373L14.5782 295.429L9.48202 302.026L9.46848 302.708C9.1128 302.702 8.76052 302.688 8.41248 302.668L8.96038 293.903L8.95614 293.835L8.96546 293.823L9.01712 292.995L3.9082 286.381L9.03319 292.374L9.04506 292.55L9.45915 285.928L5.08531 279.094L9.5125 284.766L9.94353 271.037L9.94523 270.99V271.036L9.87326 281.862L14.2276 277.57L9.85547 282.794L9.7403 288.723L13.8059 283.033L9.72337 289.595L9.65901 292.891L15.5614 284.972L9.63699 294.042L9.49472 301.373Z" fill="#3F3D56"/>
<path d="M90.1942 288.625L93.1673 286.776C93.1673 286.776 95.1353 295.976 92.9393 297.355C90.7432 298.733 82.5079 301.03 82.5079 303.787C82.5079 306.544 63.8412 310.219 63.2922 306.084C62.7432 301.949 64.9393 299.652 64.9393 299.652C64.9393 299.652 73.7236 292.301 74.8216 290.922C75.9197 289.544 78.6648 286.787 78.6648 286.787L90.1942 288.625Z" fill="#2F2E41"/>
<path d="M46.2734 174.22C46.2734 174.22 46.3558 174.624 46.4985 175.364C46.6303 176.021 46.8115 176.949 47.0311 178.093C49.337 189.869 56.0625 224.535 55.6068 225.679C55.0577 227.057 51.2146 232.111 55.6068 233.49C56.0295 233.623 56.4852 234.055 56.9738 234.735C57.9169 236.2 58.6944 237.735 59.2962 239.32C61.915 245.679 64.715 255.856 66.3346 262.904C67.0429 266.001 67.5259 268.491 67.6687 269.796C67.7183 270.098 67.7239 270.403 67.6852 270.706C67.1362 272.544 70.9793 278.976 72.6264 280.814C74.2734 282.652 77.0185 284.49 76.4695 286.328C75.9205 288.165 90.195 293.219 91.842 290.003C93.4891 286.787 93.4891 284.949 94.0381 284.03C94.5871 283.111 95.1361 276.679 92.391 275.76C89.646 274.841 91.293 258.76 88.5479 255.544C87.6311 254.473 86.2311 250.848 84.7652 246.488C84.1887 244.779 83.6067 242.959 83.0357 241.135C80.7189 233.66 78.6656 226.138 78.6656 226.138L79.2146 172.382L49.0185 169.166L48.2445 170.594L46.7017 173.429L46.2734 174.22Z" fill="#2F2E41"/>
<path d="M44.626 262.436C44.626 262.436 40.2338 258.76 38.0377 262.436C35.8417 266.112 33.6456 280.355 29.8024 283.571C25.9593 286.787 21.0181 302.868 26.5083 303.787C31.9985 304.706 38.0377 302.409 38.5867 299.652C39.1358 296.895 50.6651 282.652 50.6651 281.274C50.6651 279.895 42.9789 274.841 42.9789 274.841L44.626 262.436Z" fill="#2F2E41"/>
<path d="M112.155 148.949C112.155 148.949 105.018 202.706 103.371 207.76C101.724 212.814 92.9393 232.112 90.1942 235.328C87.4491 238.544 69.8805 264.733 67.6844 266.111C65.4883 267.49 61.0961 271.165 61.0961 271.165C61.0961 271.165 52.8609 278.057 51.7628 279.436C50.6648 280.814 41.3315 276.679 40.7824 273.922C40.2334 271.166 41.3315 266.571 41.8805 264.733C42.4295 262.895 40.7824 260.138 42.4295 258.76C44.0766 257.382 52.3118 250.49 52.3118 247.274C52.3118 244.057 66.5863 225.22 72.0765 221.084C77.5667 216.949 76.4687 210.057 76.4687 210.057V182.03L46.2726 174.22C46.2726 174.22 47.9197 152.166 51.7628 152.166C55.606 152.166 106.116 144.814 112.155 148.949Z" fill="#2F2E41"/>
<path d="M67.685 72.2198C77.6911 72.2198 85.8027 65.4315 85.8027 57.0577C85.8027 48.6838 77.6911 41.8955 67.685 41.8955C57.6789 41.8955 49.5674 48.6838 49.5674 57.0577C49.5674 65.4315 57.6789 72.2198 67.685 72.2198Z" fill="#9F616A"/>
<path d="M73.7242 69.0033C73.7242 69.0033 75.9203 75.8952 78.6654 77.733C81.4105 79.5709 71.5282 87.3817 71.5282 87.3817L52.8615 88.3006L49.5674 79.5709C49.5674 79.5709 55.6066 69.4628 53.9595 63.0303C52.3125 56.5979 73.7242 69.0033 73.7242 69.0033Z" fill="#9F616A"/>
<path d="M81.4107 76.8145C81.4107 76.8145 76.4695 77.2739 75.3715 78.6523C74.2734 80.0307 66.5872 84.1658 60.5479 83.2469C54.5087 82.328 50.6656 80.9496 49.5676 81.409C48.4695 81.8685 46.2734 91.5171 46.2734 91.5171L52.3126 106.22L51.2146 146.652L49.5676 157.679C49.5676 157.679 46.2734 154.004 59.4499 156.301C72.6264 158.598 89.646 154.463 95.1362 154.004C100.626 153.544 109.96 152.166 110.509 149.409C111.058 146.652 108.862 136.544 108.862 136.544L100.077 105.76L94.5871 89.2198L81.4107 76.8145Z" fill="#8D8D9A"/>
<path d="M76.2168 74.7406C76.2168 74.7406 80.8609 72.6792 82.508 74.517C84.155 76.3549 105.018 79.1116 105.018 80.49C105.018 81.8684 109.41 119.085 108.312 122.301C107.214 125.517 110.508 129.193 110.508 129.193L114.351 142.976C114.351 142.976 124.782 169.166 120.39 170.085C115.998 171.003 112.155 170.085 110.508 170.085C108.861 170.085 109.41 152.625 105.018 148.03C100.626 143.436 94.5864 131.949 93.4884 129.652C92.3903 127.355 78.6648 95.6522 79.2138 91.9765C79.7628 88.3008 76.2168 74.7406 76.2168 74.7406Z" fill="#A9D4EA"/>
<path d="M53.4104 76.8145C53.4104 76.8145 49.0182 76.8145 48.4692 77.7334C47.9202 78.6523 42.43 84.6253 40.2339 86.0036C38.0378 87.382 30.3516 93.355 30.3516 94.7334C30.3516 96.1117 46.2731 106.22 46.2731 106.22C46.2731 106.22 52.8613 133.328 49.5672 142.517C46.2731 151.706 41.3319 173.76 43.528 175.139C45.7241 176.517 50.6653 176.977 50.6653 175.139C50.6653 173.301 53.9594 153.544 56.7045 149.409C59.4496 145.274 67.6849 119.085 64.3907 111.733C61.0966 104.382 53.4104 76.8145 53.4104 76.8145Z" fill="#A9D4EA"/>
<path d="M125.881 122.301C125.881 122.301 126.43 136.544 120.391 143.895C114.351 151.247 110.508 159.517 110.508 159.517C110.508 159.517 100.626 157.22 98.9788 154.463C97.3318 151.706 86.9004 154.003 86.9004 153.085C86.9004 152.166 99.5278 147.571 100.626 146.652C101.724 145.733 105.567 145.733 107.763 143.895C109.959 142.058 110.508 137.922 110.508 137.922L112.704 125.976L125.881 122.301Z" fill="#9F616A"/>
<path d="M80.1638 47.7088C81.5576 47.6028 82.9951 47.4862 84.2269 46.9303C86.9871 45.6846 87.719 42.1371 85.6178 40.189C85.0385 39.6933 84.3905 39.2572 83.6876 38.8901L79.5144 36.5129C77.6686 35.4616 75.7793 34.393 73.6265 33.8973C71.6794 33.4491 69.6229 33.4951 67.6074 33.6C63.6946 33.8035 59.7577 34.2239 56.0775 35.3544C52.3974 36.485 48.9644 38.3764 46.7355 41.0753C43.2021 45.3539 43.1535 51.1244 45.0996 56.0638C47.0457 61.0033 50.7425 65.3046 54.3851 69.5186L56.2751 61.801C56.4435 61.1136 56.6612 60.3602 57.3443 59.9534C59.0422 58.9423 61.1192 61.0183 63.203 61.0049C64.542 60.9962 65.6661 60.0746 66.1736 59.0376C66.681 58.0006 66.7144 56.8522 66.8318 55.7359C67.0805 53.3716 68.068 50.0819 70.7434 48.7779C73.2365 47.5629 77.3615 47.9218 80.1638 47.7088Z" fill="#2F2E41"/>
<path opacity="0.1" d="M79.1474 174.59C79.1474 174.59 77.2931 219.476 76.1951 220.855C75.097 222.233 76.1951 174.449 76.1951 174.449L79.1474 174.59Z" fill="black"/>
<path d="M100.626 80.4902H105.018C105.018 80.4902 123.685 101.625 121.489 103.004C119.293 104.382 121.489 108.058 121.489 108.058L125.881 114.95C125.881 114.95 131.371 119.085 129.724 120.004C128.077 120.923 125.881 124.598 125.881 124.598C125.881 124.598 114.9 123.22 111.606 128.733L104.486 121.21L100.626 80.4902Z" fill="#A9D4EA"/>
<path d="M102.179 87.2877L87.1074 92.4961L98.7053 116L113.777 110.792L102.179 87.2877Z" fill="#2F2E41"/>
<path d="M100.412 101.073C102.077 100.498 102.915 98.9943 102.283 97.7145C101.652 96.4346 99.7903 95.8635 98.1256 96.4388C96.4609 97.0141 95.6233 98.518 96.2548 99.7978C96.8863 101.078 98.7478 101.649 100.412 101.073Z" fill="#8D8D9A"/>
<path d="M89.6452 117.246C89.6452 117.246 50.1158 144.814 43.5276 136.084C36.9394 127.354 50.6648 120.003 50.6648 120.003C50.6648 120.003 62.7433 120.463 76.4688 113.111L90.1942 108.057C90.1942 108.057 102.725 93.0862 106.994 98.787C111.264 104.488 99.7057 114.41 89.6452 117.246Z" fill="#9F616A"/>
<path d="M36.3906 92.8955L30.3514 94.7333V108.517L28.1553 111.274C28.1553 111.274 28.7043 116.787 30.3514 118.166C31.9984 119.544 35.2925 119.085 34.1945 122.301C33.5346 124.398 33.3484 126.579 33.6455 128.733C33.6455 128.733 43.5278 139.301 44.0768 137.922C44.6258 136.544 52.3121 119.544 53.4102 119.544C54.5082 119.544 42.4298 92.8955 42.4298 92.8955H36.3906Z" fill="#A9D4EA"/>
<path d="M108.587 162.504C108.587 162.504 114.264 157.909 111.425 157.679C108.587 157.449 98.7046 152.855 97.0575 155.152C95.4105 157.449 108.587 162.504 108.587 162.504Z" fill="#2F2E41"/>
<path d="M216.553 74.8572C220.927 74.8572 224.473 73.2862 224.473 71.3483C224.473 69.4104 220.927 67.8394 216.553 67.8394C212.179 67.8394 208.633 69.4104 208.633 71.3483C208.633 73.2862 212.179 74.8572 216.553 74.8572Z" fill="#57B894"/>
<path d="M246.836 83.0447C228.977 77.4001 211.118 77.4001 193.26 83.0447V64.7203C210.729 60.3087 229.366 60.3087 246.836 64.7203V83.0447Z" stroke="#3F3D56" stroke-width="2" stroke-miterlimit="10"/>
<path d="M239.381 79.2551C226.491 75.1811 213.602 75.1811 200.713 79.2551V66.0296C213.321 62.8456 226.772 62.8456 239.381 66.0296V79.2551Z" stroke="#3F3D56" stroke-width="2" stroke-miterlimit="10"/>
<path d="M219.349 73.2976C223.723 73.2976 227.269 71.7266 227.269 69.7887C227.269 67.8508 223.723 66.2798 219.349 66.2798C214.975 66.2798 211.429 67.8508 211.429 69.7887C211.429 71.7266 214.975 73.2976 219.349 73.2976Z" stroke="#3F3D56" stroke-width="2" stroke-miterlimit="10"/>
<path d="M222.376 96.8324C226.662 96.1004 229.761 93.9677 229.298 92.0689C228.835 90.1702 224.985 89.2243 220.699 89.9563C216.414 90.6883 213.315 92.821 213.778 94.7198C214.241 96.6186 218.091 97.5644 222.376 96.8324Z" fill="#57B894"/>
<path d="M254.003 99.7864C235.157 97.2446 217.659 100.233 201.51 108.753L197.131 90.7983C213.193 83.5522 231.454 80.4333 249.625 81.8322L254.003 99.7864Z" stroke="#3F3D56" stroke-width="2" stroke-miterlimit="10"/>
<path d="M245.794 97.3212C232.192 95.4867 219.563 97.6437 207.907 103.792L204.747 90.8342C216.34 85.6044 229.519 83.3533 242.634 84.363L245.794 97.3212Z" stroke="#3F3D56" stroke-width="2" stroke-miterlimit="10"/>
<path d="M224.744 94.8363C229.029 94.1043 232.128 91.9716 231.665 90.0728C231.202 88.1741 227.352 87.2282 223.067 87.9602C218.781 88.6922 215.682 90.8249 216.145 92.7237C216.608 94.6225 220.458 95.5683 224.744 94.8363Z" stroke="#3F3D56" stroke-width="2" stroke-miterlimit="10"/>
<path d="M227.797 115.664C227.958 113.731 224.551 111.957 220.187 111.703C215.824 111.449 212.156 112.81 211.995 114.744C211.834 116.677 215.241 118.45 219.605 118.704C223.968 118.958 227.636 117.597 227.797 115.664Z" fill="#57B894"/>
<path d="M249.134 128.632C231.787 121.963 213.971 120.926 195.688 125.519L197.208 107.239C215.001 103.853 233.593 104.935 250.654 110.351L249.134 128.632Z" stroke="#3F3D56" stroke-width="2" stroke-miterlimit="10"/>
<path d="M242.013 124.418C229.493 119.605 216.635 118.856 203.438 122.171L204.536 108.978C217.378 106.534 230.796 107.315 243.11 111.224L242.013 124.418Z" stroke="#3F3D56" stroke-width="2" stroke-miterlimit="10"/>
<path d="M230.715 114.271C230.875 112.338 227.469 110.564 223.105 110.31C218.742 110.056 215.074 111.417 214.913 113.351C214.752 115.284 218.159 117.057 222.523 117.311C226.886 117.565 230.554 116.204 230.715 114.271Z" stroke="#3F3D56" stroke-width="2" stroke-miterlimit="10"/>
<path d="M185.304 83.4701C185.304 83.4701 151.063 79.5499 126.611 91.5421" stroke="#3F3D56" stroke-width="2" stroke-miterlimit="10"/>
<path d="M127.435 87.5122L128.324 87.7477L126.934 91.4122L131.404 92.3046L131.186 93.0637L125.743 91.9756L127.435 87.5122Z" fill="#3F3D56"/>
</svg>
