<svg width="499" height="340" viewBox="0 0 499 340" fill="none" xmlns="http://www.w3.org/2000/svg">
<g clip-path="url(#clip0)">
<path d="M79.2421 0L46.2462 54.1308H52.907V98.2724H19.3388L0 129.998L239.622 233.329L318.865 103.331L79.2421 0Z" fill="#577294"/>
<path d="M439.646 35.2129H72.2754V190.234H439.646V35.2129Z" fill="#FFFEFC"/>
<path opacity="0.3" d="M394.974 90.915H123.82V91.4405H394.974V90.915Z" fill="#8D8D9A"/>
<path opacity="0.3" d="M395.287 104.053H124.132V104.578H395.287V104.053Z" fill="#8D8D9A"/>
<path opacity="0.3" d="M395.287 130.327H124.132V130.853H395.287V130.327Z" fill="#8D8D9A"/>
<path opacity="0.3" d="M395.287 141.888H124.132V142.414H395.287V141.888Z" fill="#8D8D9A"/>
<path opacity="0.3" d="M395.287 117.19H124.132V117.715H395.287V117.19Z" fill="#8D8D9A"/>
<path d="M354.051 340C418.231 340 470.26 336 470.26 331.067C470.26 326.133 418.231 322.133 354.051 322.133C289.87 322.133 237.842 326.133 237.842 331.067C237.842 336 289.87 340 354.051 340Z" fill="#C4C4C4"/>
<path d="M131.655 142.269L130.793 141.508L171.154 109.152L206.733 130.677L235.505 103.847L248.121 112.867L282.44 95.5478L320.56 117.098L380.389 88.4746L381.007 89.3879L320.505 118.333L282.402 96.7927L247.995 114.156L235.62 105.309L206.912 132.08L171.266 110.514L131.655 142.269Z" fill="#8D8D9A"/>
<path d="M247.886 313.114C250.822 322.244 260.88 327.899 260.88 327.899C260.88 327.899 266.177 318.751 263.241 309.621C260.304 300.491 250.246 294.836 250.246 294.836C250.246 294.836 244.949 303.985 247.886 313.114Z" fill="#3F3D56"/>
<path d="M252.2 311.153C260.258 317.75 261.242 327.891 261.242 327.891C261.242 327.891 249.162 327.337 241.105 320.739C233.047 314.142 232.063 304 232.063 304C232.063 304 244.143 304.555 252.2 311.153Z" fill="#8D8D9A"/>
<path opacity="0.4" d="M481 49C494.255 49 505 38.9264 505 26.5C505 14.0736 494.255 4 481 4C467.745 4 457 14.0736 457 26.5C457 38.9264 467.745 49 481 49Z" fill="#FFFEFC"/>
<path opacity="0.4" d="M439.5 49C447.508 49 454 42.732 454 35C454 27.268 447.508 21 439.5 21C431.492 21 425 27.268 425 35C425 42.732 431.492 49 439.5 49Z" fill="#FFFEFC"/>
<path opacity="0.4" d="M421.215 269.584C425.528 269.584 429.025 266.643 429.025 263.015C429.025 259.387 425.528 256.446 421.215 256.446C416.902 256.446 413.405 259.387 413.405 263.015C413.405 266.643 416.902 269.584 421.215 269.584Z" fill="#FFFEFC"/>
<path opacity="0.4" d="M288.137 302.164C291.415 302.164 294.072 299.929 294.072 297.172C294.072 294.415 291.415 292.18 288.137 292.18C284.859 292.18 282.201 294.415 282.201 297.172C282.201 299.929 284.859 302.164 288.137 302.164Z" fill="#FFFEFC"/>
<path opacity="0.4" d="M268.144 237.529C272.457 237.529 275.953 234.588 275.953 230.96C275.953 227.332 272.457 224.391 268.144 224.391C263.831 224.391 260.334 227.332 260.334 230.96C260.334 234.588 263.831 237.529 268.144 237.529Z" fill="#FFFEFC"/>
<path d="M379.98 98.0096C384.465 98.0096 388.102 94.951 388.102 91.1781C388.102 87.4052 384.465 84.3467 379.98 84.3467C375.494 84.3467 371.857 87.4052 371.857 91.1781C371.857 94.951 375.494 98.0096 379.98 98.0096Z" fill="#8D8D9A"/>
<path d="M327.206 214.914L320.321 215.558C320.321 215.558 317.26 227.14 320.321 242.583C323.381 258.027 327.206 273.47 327.206 273.47C327.206 273.47 330.266 323.661 331.796 324.304C333.326 324.948 347.097 328.808 347.862 324.948C348.627 321.087 348.627 232.931 348.627 232.931L359.338 275.4C359.338 275.4 360.868 328.808 363.928 328.808C366.988 328.808 376.934 328.165 376.934 323.661C376.934 319.156 379.229 259.957 379.229 259.957C379.229 259.957 378.464 216.201 375.404 214.914C372.344 213.627 327.206 214.914 327.206 214.914Z" fill="#2F2E41"/>
<path d="M333.326 322.373C333.326 322.373 326.441 321.73 324.911 322.373C323.381 323.017 321.086 327.521 324.911 330.095C328.736 332.669 338.682 336.53 341.742 336.53C343.864 336.451 345.945 336.013 347.862 335.243L346.332 324.304L333.326 322.373Z" fill="#2F2E41"/>
<path d="M363.928 325.591L364.693 334.599C364.693 334.599 374.639 335.886 375.404 334.599C376.169 333.312 383.819 330.095 384.584 329.451C385.349 328.808 386.114 321.73 381.524 321.086C376.934 320.443 375.404 322.373 375.404 322.373L363.928 325.591Z" fill="#2F2E41"/>
<path d="M299.664 160.863C299.664 160.863 281.303 175.663 283.598 183.384C285.894 191.106 304.255 213.627 304.255 213.627C304.255 213.627 321.851 221.349 324.146 213.627C326.441 205.906 311.905 207.836 311.905 207.836L300.429 184.671L313.435 169.228L299.664 160.863Z" fill="#FFB8B8"/>
<path d="M381.706 138.347C381.706 138.347 398.433 129.3 398.046 123.085C397.659 116.869 387.575 97.2724 387.575 97.2724C387.575 97.2724 379.687 83.4785 376.551 89.1158C373.415 94.7531 380.673 100.754 380.673 100.754L385.357 119.978L372.626 130.192L381.706 138.347Z" fill="#FFB8B8"/>
<path d="M340.212 125.472C347.817 125.472 353.983 120.286 353.983 113.89C353.983 107.493 347.817 102.307 340.212 102.307C332.606 102.307 326.441 107.493 326.441 113.89C326.441 120.286 332.606 125.472 340.212 125.472Z" fill="#FFB8B8"/>
<path d="M333.326 120.968L335.621 133.194L352.452 130.62C352.452 130.62 351.687 118.394 351.687 117.107C351.687 115.82 333.326 120.968 333.326 120.968Z" fill="#FFB8B8"/>
<path d="M332.561 133.193C332.561 133.193 351.688 129.333 353.983 130.62C356.278 131.907 367.753 133.193 367.753 133.193L380.759 149.924L376.934 171.158C376.934 171.158 376.169 205.262 377.699 211.053C379.229 216.844 387.645 217.488 370.049 218.775C352.453 220.062 349.392 218.131 337.152 220.705C324.911 223.279 314.965 219.418 318.026 216.844C321.086 214.271 326.441 173.089 320.321 169.228C314.2 165.367 311.905 145.419 311.905 145.419C311.905 145.419 332.561 136.411 332.561 133.193Z" fill="#D0CDE1"/>
<path d="M365.458 135.124L367.753 133.193L372.343 129.333C372.343 129.333 387.262 134.802 386.497 136.732C385.732 138.663 380.759 149.924 380.759 149.924L373.874 151.854L365.458 135.124Z" fill="#D0CDE1"/>
<path d="M321.085 146.706L311.905 145.419C311.905 145.419 305.019 151.854 302.724 154.428C300.429 157.002 295.839 163.437 295.839 163.437L311.905 173.089L324.146 162.15L321.085 146.706Z" fill="#D0CDE1"/>
<path d="M345.017 99.8572L344.876 98.9293C343.94 98.9248 343.01 99.0479 342.12 99.2936C342.029 98.7341 342.087 98.1645 342.29 97.6263C341.387 97.8217 340.526 98.1365 339.739 98.5591L339.183 96.8657L331.535 100.036C328.79 101.174 325.895 102.424 324.326 104.635C322.576 107.098 322.881 110.265 324.077 112.953C325.273 115.641 327.26 118.019 328.853 120.557C329.458 121.649 330.185 122.689 331.024 123.665C333.911 126.692 339.53 127.303 343.6 125.476C345.149 124.849 346.384 123.78 347.085 122.46C347.382 121.641 347.615 120.807 347.781 119.962C348.285 118.232 348.869 114.662 350.54 113.568C351.275 113.086 352.732 114.682 353.341 114.089C354.906 112.566 354.578 110.216 353.606 108.375C352.673 106.527 351.582 104.738 350.342 103.022C349.817 102.332 345 99.7459 345.017 99.8572Z" fill="#2F2E41"/>
<path d="M47.9088 60.4365H7.92285V94.0682H47.9088V60.4365Z" fill="#A9D4EA"/>
</g>
<defs>
<clipPath id="clip0">
<rect width="499" height="340" fill="white"/>
</clipPath>
</defs>
</svg>
